G04 #@! TF.GenerationSoftware,KiCad,Pcbnew,5.1.9-73d0e3b20d~88~ubuntu20.04.1*
G04 #@! TF.CreationDate,2021-05-16T08:32:41-04:00*
G04 #@! TF.ProjectId,TeensyR4gePro-v2,5465656e-7379-4523-9467-6550726f2d76,1*
G04 #@! TF.SameCoordinates,Original*
G04 #@! TF.FileFunction,Copper,L1,Top*
G04 #@! TF.FilePolarity,Positive*
%FSLAX46Y46*%
G04 Gerber Fmt 4.6, Leading zero omitted, Abs format (unit mm)*
G04 Created by KiCad (PCBNEW 5.1.9-73d0e3b20d~88~ubuntu20.04.1) date 2021-05-16 08:32:41*
%MOMM*%
%LPD*%
G01*
G04 APERTURE LIST*
G04 #@! TA.AperFunction,ComponentPad*
%ADD10C,2.224000*%
G04 #@! TD*
G04 #@! TA.AperFunction,ComponentPad*
%ADD11C,2.524000*%
G04 #@! TD*
G04 #@! TA.AperFunction,ComponentPad*
%ADD12R,1.524000X1.524000*%
G04 #@! TD*
G04 #@! TA.AperFunction,ComponentPad*
%ADD13C,1.524000*%
G04 #@! TD*
G04 #@! TA.AperFunction,ComponentPad*
%ADD14O,1.600000X1.600000*%
G04 #@! TD*
G04 #@! TA.AperFunction,ComponentPad*
%ADD15C,1.600000*%
G04 #@! TD*
G04 #@! TA.AperFunction,ComponentPad*
%ADD16C,2.250000*%
G04 #@! TD*
G04 #@! TA.AperFunction,ComponentPad*
%ADD17C,3.000000*%
G04 #@! TD*
G04 #@! TA.AperFunction,ComponentPad*
%ADD18R,2.000000X2.000000*%
G04 #@! TD*
G04 #@! TA.AperFunction,ComponentPad*
%ADD19C,2.000000*%
G04 #@! TD*
G04 #@! TA.AperFunction,ComponentPad*
%ADD20R,3.200000X2.000000*%
G04 #@! TD*
G04 #@! TA.AperFunction,ComponentPad*
%ADD21C,2.340000*%
G04 #@! TD*
G04 #@! TA.AperFunction,ComponentPad*
%ADD22R,1.600000X1.600000*%
G04 #@! TD*
G04 #@! TA.AperFunction,ComponentPad*
%ADD23O,1.700000X1.700000*%
G04 #@! TD*
G04 #@! TA.AperFunction,ComponentPad*
%ADD24R,1.700000X1.700000*%
G04 #@! TD*
G04 #@! TA.AperFunction,ComponentPad*
%ADD25R,3.500000X3.500000*%
G04 #@! TD*
G04 #@! TA.AperFunction,ComponentPad*
%ADD26C,3.500000*%
G04 #@! TD*
G04 #@! TA.AperFunction,ComponentPad*
%ADD27C,1.300000*%
G04 #@! TD*
G04 #@! TA.AperFunction,ComponentPad*
%ADD28R,1.300000X1.300000*%
G04 #@! TD*
G04 #@! TA.AperFunction,ComponentPad*
%ADD29C,1.724000*%
G04 #@! TD*
G04 #@! TA.AperFunction,ViaPad*
%ADD30C,0.800000*%
G04 #@! TD*
G04 #@! TA.AperFunction,Conductor*
%ADD31C,0.250000*%
G04 #@! TD*
G04 #@! TA.AperFunction,Conductor*
%ADD32C,0.350000*%
G04 #@! TD*
G04 APERTURE END LIST*
D10*
X89204800Y-78663800D03*
X89204800Y-75615800D03*
X89204800Y-67995800D03*
X89204800Y-64947800D03*
X66852800Y-64947800D03*
X66852800Y-78663800D03*
D11*
X146652000Y-61620400D03*
X146652000Y-56794400D03*
D12*
X126840000Y-74066400D03*
D13*
X129380000Y-74066400D03*
X131920000Y-74066400D03*
X134460000Y-74066400D03*
X147160000Y-74066400D03*
X144620000Y-74066400D03*
X142080000Y-74066400D03*
X139540000Y-74066400D03*
X137000000Y-74066400D03*
D14*
X157673000Y-42380000D03*
D15*
X157673000Y-50000000D03*
D16*
X152878000Y-30602000D03*
D17*
X147953000Y-38002000D03*
D16*
X147828000Y-28702000D03*
D15*
X98258000Y-27940000D03*
X95758000Y-27940000D03*
D18*
X187452000Y-79629000D03*
D19*
X187452000Y-82129000D03*
X187452000Y-84629000D03*
D20*
X194952000Y-76529000D03*
X194952000Y-87729000D03*
D19*
X201952000Y-79629000D03*
X201952000Y-84629000D03*
D14*
X174879000Y-83693000D03*
D15*
X182499000Y-83693000D03*
D14*
X175006000Y-79375000D03*
D15*
X182626000Y-79375000D03*
D19*
X81280000Y-47498000D03*
D18*
X83820000Y-47498000D03*
D19*
X78740000Y-47498000D03*
D18*
X90424000Y-53848000D03*
D19*
X90424000Y-56388000D03*
X90424000Y-58928000D03*
X77978000Y-61976000D03*
X84582000Y-61976000D03*
D21*
X74930000Y-51054000D03*
X87884000Y-51054000D03*
X87884000Y-61468000D03*
X74930000Y-61468000D03*
D19*
X77978000Y-66802000D03*
X84582000Y-66802000D03*
D13*
X169017000Y-27884100D03*
X159365000Y-27884100D03*
D12*
X160127000Y-38044100D03*
D13*
X162159000Y-38044100D03*
X168255000Y-38044100D03*
X166223000Y-38044100D03*
X164191000Y-38044100D03*
D14*
X152000000Y-66680100D03*
X159620000Y-74300100D03*
X154540000Y-66680100D03*
X157080000Y-74300100D03*
X157080000Y-66680100D03*
X154540000Y-74300100D03*
X159620000Y-66680100D03*
D22*
X152000000Y-74300100D03*
D14*
X156574000Y-55280600D03*
D15*
X156574000Y-62900600D03*
D14*
X166000000Y-67380000D03*
D15*
X166000000Y-75000000D03*
D14*
X161572000Y-55148500D03*
D15*
X161572000Y-62768500D03*
D14*
X166000000Y-55380000D03*
D15*
X166000000Y-63000000D03*
D14*
X171000000Y-55380000D03*
D15*
X171000000Y-63000000D03*
D14*
X170000000Y-67380000D03*
D15*
X170000000Y-75000000D03*
D14*
X175000000Y-55380000D03*
D15*
X175000000Y-63000000D03*
D14*
X174000000Y-67380000D03*
D15*
X174000000Y-75000000D03*
D14*
X165500000Y-42380000D03*
D15*
X165500000Y-50000000D03*
X177500000Y-34500000D03*
D22*
X175000000Y-34500000D03*
D15*
X177500000Y-42000000D03*
D22*
X175000000Y-42000000D03*
D15*
X175500000Y-50000000D03*
D22*
X173000000Y-50000000D03*
D15*
X153500000Y-49000000D03*
D22*
X151000000Y-49000000D03*
D15*
X169000000Y-49000000D03*
X169000000Y-44000000D03*
X161500000Y-44000000D03*
X161500000Y-49000000D03*
D14*
X108380000Y-74000000D03*
D15*
X116000000Y-74000000D03*
D23*
X151003000Y-60452000D03*
D24*
X151003000Y-57912000D03*
D25*
X102870000Y-96520000D03*
D26*
X174870000Y-96520000D03*
D27*
X167469000Y-91236800D03*
X167469000Y-88696800D03*
D15*
X122479000Y-95046800D03*
X122479000Y-92506800D03*
X122479000Y-89966800D03*
X122479000Y-87426800D03*
X122479000Y-84886800D03*
D27*
X155229000Y-91148400D03*
X153229000Y-91148400D03*
X153229000Y-93148400D03*
X155229000Y-93148400D03*
X153229000Y-95148400D03*
D28*
X155229000Y-95148400D03*
D15*
X127559000Y-82346800D03*
X125019000Y-82346800D03*
X122479000Y-82346800D03*
X119939000Y-82346800D03*
X130099000Y-82346800D03*
X132639000Y-82346800D03*
X135179000Y-82346800D03*
X117399000Y-82346800D03*
X114859000Y-82346800D03*
X112319000Y-82346800D03*
X109779000Y-82346800D03*
X109779000Y-97586800D03*
X112319000Y-97586800D03*
X114859000Y-97586800D03*
X117399000Y-97586800D03*
X119939000Y-97586800D03*
X122479000Y-97586800D03*
X125019000Y-97586800D03*
X127559000Y-97586800D03*
X130099000Y-97586800D03*
X132639000Y-97586800D03*
X137719000Y-82346800D03*
X140259000Y-82346800D03*
X142799000Y-82346800D03*
X145339000Y-82346800D03*
X147879000Y-82346800D03*
X150419000Y-82346800D03*
X152959000Y-82346800D03*
X155499000Y-82346800D03*
X158039000Y-82346800D03*
X160579000Y-82346800D03*
X163119000Y-82346800D03*
X165659000Y-82346800D03*
D22*
X168199000Y-82346800D03*
D15*
X135179000Y-97586800D03*
X137719000Y-97586800D03*
X140259000Y-97586800D03*
X142799000Y-97586800D03*
X145339000Y-97586800D03*
X147879000Y-97586800D03*
X150419000Y-97586800D03*
X152959000Y-97586800D03*
X155499000Y-97586800D03*
X158039000Y-97586800D03*
X160579000Y-97586800D03*
X163119000Y-97586800D03*
X165659000Y-97586800D03*
X168199000Y-97586800D03*
D22*
X161899800Y-85397600D03*
D15*
X159359800Y-85397600D03*
X156819800Y-85397600D03*
X154279800Y-85397600D03*
X151739800Y-85397600D03*
X165659000Y-95046800D03*
D23*
X210922000Y-91389200D03*
X210922000Y-88849200D03*
X210922000Y-86309200D03*
X210922000Y-83769200D03*
X210922000Y-81229200D03*
D24*
X210922000Y-78689200D03*
D13*
X66294000Y-57937400D03*
X66294000Y-53873400D03*
X66294000Y-51841400D03*
X68834000Y-57937400D03*
X68834000Y-53873400D03*
X68834000Y-51841400D03*
X66294000Y-49809400D03*
X68834000Y-49809400D03*
D16*
X67564000Y-59969400D03*
X67564000Y-47777400D03*
D14*
X92323900Y-42412900D03*
D15*
X84703900Y-42412900D03*
D14*
X80579000Y-42479000D03*
D15*
X72959000Y-42479000D03*
D12*
X179070000Y-47244000D03*
D13*
X179070000Y-49784000D03*
X179070000Y-52324000D03*
X179070000Y-54864000D03*
X97282000Y-67564000D03*
X97282000Y-65024000D03*
X97282000Y-62484000D03*
X97282000Y-59944000D03*
X97282000Y-57404000D03*
X97282000Y-54864000D03*
X97282000Y-52324000D03*
X97282000Y-49784000D03*
X97282000Y-47244000D03*
X97282000Y-44704000D03*
X97282000Y-42164000D03*
X97282000Y-39624000D03*
X97282000Y-37084000D03*
D12*
X97282000Y-34544000D03*
D29*
X82778600Y-27924800D03*
X73126600Y-27924800D03*
D12*
X73888600Y-38084800D03*
D13*
X75920600Y-38084800D03*
X82016600Y-38084800D03*
X79984600Y-38084800D03*
X77952600Y-38084800D03*
D12*
X103632000Y-55372000D03*
X103632000Y-52832000D03*
X103632000Y-63500000D03*
X103632000Y-66040000D03*
X103632000Y-50038000D03*
X122682000Y-62992000D03*
X122682000Y-65532000D03*
X122682000Y-53086000D03*
X122682000Y-50546000D03*
D13*
X103632000Y-42164000D03*
X106172000Y-42164000D03*
X108712000Y-42164000D03*
X111252000Y-42164000D03*
X113792000Y-42164000D03*
X116332000Y-42164000D03*
X118872000Y-42164000D03*
X121412000Y-42164000D03*
X123952000Y-42164000D03*
X130048000Y-41656000D03*
X130048000Y-39116000D03*
X130048000Y-36576000D03*
X130048000Y-34036000D03*
X130048000Y-31496000D03*
D12*
X130048000Y-28956000D03*
D14*
X116620000Y-70000000D03*
D15*
X109000000Y-70000000D03*
D12*
X184404000Y-30018000D03*
D13*
X184404000Y-36114000D03*
D12*
X92456000Y-36322000D03*
D13*
X92456000Y-30226000D03*
D19*
X82700000Y-78740000D03*
X82700000Y-83240000D03*
X76200000Y-78740000D03*
X76200000Y-83240000D03*
X82700000Y-93980000D03*
X82700000Y-98480000D03*
X76200000Y-93980000D03*
X76200000Y-98480000D03*
X72540000Y-86360000D03*
X72540000Y-90860000D03*
X66040000Y-86360000D03*
X66040000Y-90860000D03*
X92860000Y-86360000D03*
X92860000Y-90860000D03*
X86360000Y-86360000D03*
X86360000Y-90860000D03*
X202080000Y-63500000D03*
X202080000Y-68000000D03*
X195580000Y-63500000D03*
X195580000Y-68000000D03*
X212240000Y-55880000D03*
X212240000Y-60380000D03*
X205740000Y-55880000D03*
X205740000Y-60380000D03*
X191920000Y-55880000D03*
X191920000Y-60380000D03*
X185420000Y-55880000D03*
X185420000Y-60380000D03*
X202080000Y-48260000D03*
X202080000Y-52760000D03*
X195580000Y-48260000D03*
X195580000Y-52760000D03*
D30*
X197612000Y-98552000D03*
X149016200Y-78462600D03*
X90805000Y-38608000D03*
X143939400Y-85609400D03*
X173482000Y-88011000D03*
D31*
X202080000Y-63500000D02*
X202080000Y-59540000D01*
X202080000Y-59540000D02*
X205740000Y-55880000D01*
X195580000Y-63500000D02*
X202080000Y-63500000D01*
X191008000Y-98552000D02*
X188976000Y-96520000D01*
X188976000Y-96520000D02*
X174870000Y-96520000D01*
X197612000Y-98552000D02*
X197612000Y-98552000D01*
X131920000Y-74066400D02*
X133036700Y-72949700D01*
X133036700Y-72949700D02*
X147730200Y-72949700D01*
X195580000Y-48260000D02*
X191920000Y-51920000D01*
X191920000Y-51920000D02*
X191920000Y-55880000D01*
X202080000Y-48260000D02*
X195580000Y-48260000D01*
X165500000Y-50000000D02*
X165352600Y-50147400D01*
X165352600Y-50147400D02*
X157820400Y-50147400D01*
X157820400Y-50147400D02*
X157673000Y-50000000D01*
X79936700Y-78740000D02*
X82700000Y-78740000D01*
X76200000Y-78740000D02*
X79936700Y-78740000D01*
X79936700Y-78740000D02*
X79936700Y-66802000D01*
D32*
X79936700Y-66802000D02*
X84582000Y-66802000D01*
X77978000Y-66802000D02*
X79936700Y-66802000D01*
X66852800Y-64947800D02*
X68707000Y-66802000D01*
X68707000Y-66802000D02*
X77978000Y-66802000D01*
D31*
X191920000Y-55880000D02*
X185420000Y-55880000D01*
X130048000Y-31496000D02*
X124460000Y-37084000D01*
X124460000Y-37084000D02*
X97282000Y-37084000D01*
X175000000Y-55380000D02*
X171000000Y-55380000D01*
X153500000Y-49000000D02*
X156673000Y-49000000D01*
X156673000Y-49000000D02*
X157673000Y-50000000D01*
X76200000Y-93980000D02*
X82700000Y-93980000D01*
X66040000Y-86360000D02*
X72540000Y-86360000D01*
X86360000Y-86360000D02*
X92860000Y-86360000D01*
X205740000Y-55880000D02*
X212240000Y-55880000D01*
D32*
X89204800Y-64947800D02*
X90507000Y-66250000D01*
D31*
X103422000Y-66250000D02*
X103632000Y-66040000D01*
D32*
X90507000Y-66250000D02*
X103422000Y-66250000D01*
D31*
X130048000Y-31496000D02*
X133044000Y-28500000D01*
X133044000Y-28500000D02*
X147971400Y-28500000D01*
X168199000Y-82346800D02*
X168146800Y-82346800D01*
X152180500Y-77400000D02*
X150490250Y-75709750D01*
X163200000Y-77400000D02*
X152180500Y-77400000D01*
X150490250Y-75709750D02*
X150656200Y-75875700D01*
X147730200Y-72949700D02*
X150490250Y-75709750D01*
X159620000Y-74300100D02*
X162769900Y-77450000D01*
X162769900Y-77450000D02*
X163250000Y-77450000D01*
X163250000Y-77450000D02*
X163200000Y-77400000D01*
X168146800Y-82346800D02*
X163250000Y-77450000D01*
X197612000Y-98552000D02*
X191008000Y-98552000D01*
X96194999Y-35996999D02*
X97282000Y-37084000D01*
X96194999Y-30003001D02*
X96194999Y-35996999D01*
X98258000Y-27940000D02*
X96194999Y-30003001D01*
X148952999Y-27577001D02*
X154831001Y-27577001D01*
X147828000Y-28702000D02*
X148952999Y-27577001D01*
X160127000Y-32873000D02*
X160127000Y-38044100D01*
X154831001Y-27577001D02*
X160127000Y-32873000D01*
X66294000Y-53873400D02*
X65180400Y-54987000D01*
X65180400Y-54987000D02*
X65180400Y-74094800D01*
X65180400Y-74094800D02*
X87605600Y-96520000D01*
X87605600Y-96520000D02*
X102870000Y-96520000D01*
X96194600Y-52324000D02*
X97282000Y-52324000D01*
X91749300Y-53848000D02*
X93273300Y-52324000D01*
X93273300Y-52324000D02*
X96194600Y-52324000D01*
X97282000Y-42164000D02*
X96194600Y-43251400D01*
X96194600Y-43251400D02*
X96194600Y-52324000D01*
X130048000Y-28956000D02*
X128960700Y-28956000D01*
X128960700Y-28956000D02*
X123372700Y-34544000D01*
X123372700Y-34544000D02*
X97282000Y-34544000D01*
X144620000Y-74066400D02*
X149016200Y-78462600D01*
X90424000Y-53848000D02*
X91749300Y-53848000D01*
X116000000Y-74000000D02*
X117172900Y-75172900D01*
X117172900Y-75172900D02*
X138433500Y-75172900D01*
X138433500Y-75172900D02*
X139540000Y-74066400D01*
X82700000Y-83240000D02*
X84723400Y-81216600D01*
X84723400Y-81216600D02*
X116268800Y-81216600D01*
X116268800Y-81216600D02*
X117399000Y-82346800D01*
X76200000Y-83240000D02*
X82700000Y-83240000D01*
X76200000Y-98480000D02*
X82700000Y-98480000D01*
X66040000Y-90860000D02*
X72540000Y-90860000D01*
X86360000Y-90860000D02*
X92860000Y-90860000D01*
X150419000Y-97586800D02*
X151787000Y-96218800D01*
X151787000Y-96218800D02*
X162636400Y-96218800D01*
X162636400Y-96218800D02*
X165362300Y-93492900D01*
X165362300Y-93492900D02*
X169476000Y-93492900D01*
X169476000Y-93492900D02*
X171285400Y-91683500D01*
X171285400Y-91683500D02*
X202089500Y-91683500D01*
X202089500Y-91683500D02*
X202442200Y-92036200D01*
X202442200Y-92036200D02*
X204019700Y-92036200D01*
X204019700Y-92036200D02*
X209746700Y-86309200D01*
X210922000Y-86309200D02*
X209746700Y-86309200D01*
X184404000Y-32346000D02*
X184404000Y-30018000D01*
X179000000Y-37750000D02*
X184404000Y-32346000D01*
X172944390Y-37750000D02*
X179000000Y-37750000D01*
X165568990Y-45125400D02*
X172944390Y-37750000D01*
X141635900Y-45125400D02*
X165568990Y-45125400D01*
X123769300Y-62992000D02*
X141635900Y-45125400D01*
X122682000Y-62992000D02*
X123769300Y-62992000D01*
X123769300Y-65532000D02*
X142352200Y-46949100D01*
X142352200Y-46949100D02*
X164381700Y-46949100D01*
X122682000Y-65532000D02*
X123769300Y-65532000D01*
X164381700Y-46949100D02*
X172580800Y-38750000D01*
X181768000Y-38750000D02*
X184404000Y-36114000D01*
X172580800Y-38750000D02*
X181768000Y-38750000D01*
X202080000Y-68000000D02*
X195580000Y-68000000D01*
X205740000Y-60380000D02*
X212240000Y-60380000D01*
X185420000Y-60380000D02*
X191920000Y-60380000D01*
X195580000Y-52760000D02*
X202080000Y-52760000D01*
X108380000Y-74000000D02*
X111914100Y-74000000D01*
X111914100Y-74000000D02*
X118537900Y-80623800D01*
X118537900Y-80623800D02*
X127463000Y-80623800D01*
X127463000Y-80623800D02*
X128754300Y-81915100D01*
X128754300Y-81915100D02*
X128754300Y-82746000D01*
X128754300Y-82746000D02*
X122803500Y-88696800D01*
X122803500Y-88696800D02*
X122078600Y-88696800D01*
X122078600Y-88696800D02*
X119939000Y-90836400D01*
X119939000Y-90836400D02*
X119939000Y-97586800D01*
X97282000Y-39624000D02*
X101958100Y-44300100D01*
X101958100Y-44300100D02*
X101958100Y-55758700D01*
X101958100Y-55758700D02*
X116199400Y-70000000D01*
X116199400Y-70000000D02*
X116620000Y-70000000D01*
X95758000Y-27940000D02*
X92075000Y-27940000D01*
X90805000Y-29210000D02*
X92075000Y-27940000D01*
X90805000Y-38608000D02*
X90805000Y-29210000D01*
X152000000Y-66680100D02*
X152000000Y-67805400D01*
X150833900Y-72457800D02*
X150833900Y-75229300D01*
X150833900Y-75229300D02*
X151030000Y-75425400D01*
X151030000Y-75425400D02*
X155012300Y-75425400D01*
X155012300Y-75425400D02*
X155810000Y-74627700D01*
X155810000Y-74627700D02*
X155810000Y-73909800D01*
X155810000Y-73909800D02*
X156545000Y-73174800D01*
X156545000Y-73174800D02*
X160295000Y-73174800D01*
X160295000Y-73174800D02*
X163255400Y-76135200D01*
X163255400Y-76135200D02*
X168864800Y-76135200D01*
X168864800Y-76135200D02*
X170000000Y-75000000D01*
X152000000Y-67805400D02*
X150833900Y-68971500D01*
X103088400Y-63500000D02*
X103632000Y-63500000D01*
X174000000Y-75000000D02*
X170000000Y-75000000D01*
D32*
X68834000Y-49809400D02*
X78632900Y-59608300D01*
X68834000Y-49809400D02*
X66802000Y-51841400D01*
D31*
X66802000Y-51841400D02*
X66294000Y-51841400D01*
D32*
X165659000Y-95046800D02*
X168199000Y-97586800D01*
X78632900Y-59608300D02*
X88608300Y-59608300D01*
X88608300Y-59608300D02*
X92750000Y-63750000D01*
D31*
X103382000Y-63750000D02*
X103632000Y-63500000D01*
D32*
X92750000Y-63750000D02*
X103382000Y-63750000D01*
X103632000Y-63500000D02*
X107750000Y-63500000D01*
X118316400Y-74066400D02*
X126840000Y-74066400D01*
X107750000Y-63500000D02*
X118316400Y-74066400D01*
D31*
X126840000Y-74066400D02*
X126840000Y-73360000D01*
D32*
X128533900Y-71666100D02*
X150833900Y-71666100D01*
X126840000Y-73360000D02*
X128533900Y-71666100D01*
D31*
X150833900Y-71666100D02*
X150833900Y-72457800D01*
X150833900Y-68971500D02*
X150833900Y-71666100D01*
X142080000Y-74066400D02*
X143939400Y-75925800D01*
X143939400Y-75925800D02*
X143939400Y-85609400D01*
X103632000Y-52832000D02*
X103632000Y-51744700D01*
X106172000Y-42164000D02*
X106172000Y-49510500D01*
X106172000Y-49510500D02*
X103937800Y-51744700D01*
X103937800Y-51744700D02*
X103632000Y-51744700D01*
X171566900Y-86522900D02*
X143702900Y-86522900D01*
X143702900Y-86522900D02*
X132639000Y-97586800D01*
X79984600Y-38084800D02*
X75590400Y-42479000D01*
X75590400Y-42479000D02*
X72959000Y-42479000D01*
X80579000Y-42479000D02*
X81704300Y-42479000D01*
X81704300Y-42479000D02*
X83922500Y-40260800D01*
X83922500Y-40260800D02*
X93289400Y-40260800D01*
X93289400Y-40260800D02*
X95022200Y-38528000D01*
X95022200Y-38528000D02*
X105076000Y-38528000D01*
X105076000Y-38528000D02*
X108712000Y-42164000D01*
X77978000Y-61976000D02*
X84582000Y-61976000D01*
X126433700Y-81221500D02*
X127559000Y-82346800D01*
X118498700Y-81221500D02*
X126433700Y-81221500D01*
X117101100Y-79823900D02*
X118498700Y-81221500D01*
X97984900Y-79823900D02*
X117101100Y-79823900D01*
X86741000Y-68580000D02*
X97984900Y-79823900D01*
X86741000Y-64135000D02*
X86741000Y-68580000D01*
X84582000Y-61976000D02*
X86741000Y-64135000D01*
X97282000Y-49784000D02*
X98371400Y-50873400D01*
X98371400Y-50873400D02*
X98371400Y-56314600D01*
X98371400Y-56314600D02*
X97282000Y-57404000D01*
X135179000Y-82346800D02*
X132088800Y-79256600D01*
X132088800Y-79256600D02*
X119657800Y-79256600D01*
X119657800Y-79256600D02*
X113796000Y-73394800D01*
X113796000Y-73394800D02*
X113796000Y-73147400D01*
X113796000Y-73147400D02*
X105601200Y-64952600D01*
X105601200Y-64952600D02*
X97353400Y-64952600D01*
X97353400Y-64952600D02*
X97282000Y-65024000D01*
X97282000Y-47244000D02*
X98843600Y-48805600D01*
X98843600Y-48805600D02*
X98843600Y-60922400D01*
X98843600Y-60922400D02*
X97282000Y-62484000D01*
X157673000Y-42380000D02*
X158798300Y-42380000D01*
X161500000Y-44000000D02*
X160418300Y-44000000D01*
X160418300Y-44000000D02*
X158798300Y-42380000D01*
X152878000Y-30602000D02*
X149098000Y-34382000D01*
X149098000Y-34382000D02*
X147736000Y-34382000D01*
X147736000Y-34382000D02*
X145669000Y-36449000D01*
X145669000Y-36449000D02*
X145669000Y-41021000D01*
X147028000Y-42380000D02*
X157673000Y-42380000D01*
X145669000Y-41021000D02*
X147028000Y-42380000D01*
X174000000Y-67380000D02*
X174000000Y-66254700D01*
X174000000Y-66254700D02*
X175000000Y-65254700D01*
X175000000Y-65254700D02*
X175000000Y-63000000D01*
X159620000Y-66680100D02*
X160745300Y-66680100D01*
X170000000Y-66254700D02*
X161170700Y-66254700D01*
X161170700Y-66254700D02*
X160745300Y-66680100D01*
X170000000Y-66367300D02*
X170000000Y-66254700D01*
X170000000Y-67380000D02*
X170000000Y-66367300D01*
X170000000Y-66254700D02*
X171000000Y-65254700D01*
X171000000Y-65254700D02*
X171000000Y-63000000D01*
X169000000Y-49000000D02*
X169000000Y-61000000D01*
X169000000Y-61000000D02*
X171000000Y-63000000D01*
X165500000Y-42380000D02*
X161451400Y-42380000D01*
X157073400Y-38002000D02*
X161451400Y-42380000D01*
X147953000Y-38002000D02*
X157073400Y-38002000D01*
X166000000Y-55380000D02*
X164874700Y-55380000D01*
X151000000Y-49000000D02*
X152125300Y-49000000D01*
X152125300Y-49000000D02*
X152125300Y-49281300D01*
X152125300Y-49281300D02*
X156071600Y-53227600D01*
X156071600Y-53227600D02*
X162722300Y-53227600D01*
X162722300Y-53227600D02*
X164874700Y-55380000D01*
X161572000Y-55148500D02*
X162697300Y-55148500D01*
X173000000Y-50000000D02*
X171874700Y-50000000D01*
X171874700Y-50000000D02*
X169701200Y-47826500D01*
X169701200Y-47826500D02*
X168549300Y-47826500D01*
X168549300Y-47826500D02*
X167135000Y-49240800D01*
X167135000Y-49240800D02*
X167135000Y-55867900D01*
X167135000Y-55867900D02*
X166494700Y-56508200D01*
X166494700Y-56508200D02*
X164057000Y-56508200D01*
X164057000Y-56508200D02*
X162697300Y-55148500D01*
X166000000Y-75000000D02*
X165013100Y-74013000D01*
X177500000Y-42000000D02*
X177500000Y-58091600D01*
X177500000Y-58091600D02*
X172000000Y-63591600D01*
X172000000Y-63591600D02*
X172000000Y-67026100D01*
X172000000Y-67026100D02*
X165013100Y-74013000D01*
X152000000Y-74300100D02*
X154000100Y-72300000D01*
X163300000Y-72300000D02*
X166000000Y-75000000D01*
X154000100Y-72300000D02*
X163300000Y-72300000D01*
X156574000Y-62900600D02*
X154540000Y-64934600D01*
X154540000Y-64934600D02*
X154540000Y-66680100D01*
X169767100Y-34500000D02*
X175000000Y-34500000D01*
X166223000Y-38044100D02*
X169767100Y-34500000D01*
X147312400Y-60960000D02*
X146652000Y-61620400D01*
X149834600Y-61620400D02*
X151003000Y-60452000D01*
X146652000Y-61620400D02*
X149834600Y-61620400D01*
X146652000Y-56794400D02*
X147091400Y-56794400D01*
X148209000Y-57912000D02*
X151003000Y-57912000D01*
X147091400Y-56794400D02*
X148209000Y-57912000D01*
X156574000Y-55280600D02*
X156574000Y-56405900D01*
X156574000Y-56405900D02*
X161572000Y-61403900D01*
X161572000Y-61403900D02*
X161572000Y-62768500D01*
X173389000Y-88138000D02*
X168853300Y-92673700D01*
X168853300Y-92673700D02*
X158944800Y-92673700D01*
X158944800Y-92673700D02*
X157470200Y-94148300D01*
X157470200Y-94148300D02*
X143697500Y-94148300D01*
X143697500Y-94148300D02*
X140259000Y-97586800D01*
X187198000Y-79375000D02*
X187452000Y-79629000D01*
X182626000Y-79375000D02*
X187198000Y-79375000D01*
X148134700Y-87171100D02*
X137719000Y-97586800D01*
X186516000Y-83693000D02*
X187452000Y-84629000D01*
X182499000Y-83693000D02*
X186516000Y-83693000D01*
X148332891Y-86972909D02*
X148134700Y-87171100D01*
X179219091Y-86972909D02*
X148332891Y-86972909D01*
X182499000Y-83693000D02*
X179219091Y-86972909D01*
X210922000Y-91389200D02*
X209746700Y-91389200D01*
X209746700Y-91389200D02*
X206084500Y-95051400D01*
X206084500Y-95051400D02*
X177246600Y-95051400D01*
X177246600Y-95051400D02*
X176636400Y-94441200D01*
X176636400Y-94441200D02*
X173894300Y-94441200D01*
X173894300Y-94441200D02*
X169596300Y-98739200D01*
X169596300Y-98739200D02*
X116011400Y-98739200D01*
X116011400Y-98739200D02*
X114859000Y-97586800D01*
M02*
