G04 #@! TF.GenerationSoftware,KiCad,Pcbnew,5.1.9-73d0e3b20d~88~ubuntu20.04.1*
G04 #@! TF.CreationDate,2021-05-16T08:32:41-04:00*
G04 #@! TF.ProjectId,TeensyR4gePro-v2,5465656e-7379-4523-9467-6550726f2d76,1*
G04 #@! TF.SameCoordinates,Original*
G04 #@! TF.FileFunction,Legend,Bot*
G04 #@! TF.FilePolarity,Positive*
%FSLAX46Y46*%
G04 Gerber Fmt 4.6, Leading zero omitted, Abs format (unit mm)*
G04 Created by KiCad (PCBNEW 5.1.9-73d0e3b20d~88~ubuntu20.04.1) date 2021-05-16 08:32:41*
%MOMM*%
%LPD*%
G01*
G04 APERTURE LIST*
%ADD10C,0.150000*%
%ADD11C,0.120000*%
%ADD12C,0.250000*%
G04 APERTURE END LIST*
D10*
X83779928Y-69937880D02*
X83208500Y-69937880D01*
X83494214Y-70937880D02*
X83494214Y-69937880D01*
X82875166Y-70937880D02*
X82875166Y-69937880D01*
X82494214Y-69937880D01*
X82398976Y-69985500D01*
X82351357Y-70033119D01*
X82303738Y-70128357D01*
X82303738Y-70271214D01*
X82351357Y-70366452D01*
X82398976Y-70414071D01*
X82494214Y-70461690D01*
X82875166Y-70461690D01*
X81446595Y-70271214D02*
X81446595Y-70937880D01*
X81684690Y-69890261D02*
X81922785Y-70604547D01*
X81303738Y-70604547D01*
X80732309Y-69937880D02*
X80637071Y-69937880D01*
X80541833Y-69985500D01*
X80494214Y-70033119D01*
X80446595Y-70128357D01*
X80398976Y-70318833D01*
X80398976Y-70556928D01*
X80446595Y-70747404D01*
X80494214Y-70842642D01*
X80541833Y-70890261D01*
X80637071Y-70937880D01*
X80732309Y-70937880D01*
X80827547Y-70890261D01*
X80875166Y-70842642D01*
X80922785Y-70747404D01*
X80970404Y-70556928D01*
X80970404Y-70318833D01*
X80922785Y-70128357D01*
X80875166Y-70033119D01*
X80827547Y-69985500D01*
X80732309Y-69937880D01*
X79494214Y-69937880D02*
X79970404Y-69937880D01*
X80018023Y-70414071D01*
X79970404Y-70366452D01*
X79875166Y-70318833D01*
X79637071Y-70318833D01*
X79541833Y-70366452D01*
X79494214Y-70414071D01*
X79446595Y-70509309D01*
X79446595Y-70747404D01*
X79494214Y-70842642D01*
X79541833Y-70890261D01*
X79637071Y-70937880D01*
X79875166Y-70937880D01*
X79970404Y-70890261D01*
X80018023Y-70842642D01*
X78589452Y-69937880D02*
X78779928Y-69937880D01*
X78875166Y-69985500D01*
X78922785Y-70033119D01*
X79018023Y-70175976D01*
X79065642Y-70366452D01*
X79065642Y-70747404D01*
X79018023Y-70842642D01*
X78970404Y-70890261D01*
X78875166Y-70937880D01*
X78684690Y-70937880D01*
X78589452Y-70890261D01*
X78541833Y-70842642D01*
X78494214Y-70747404D01*
X78494214Y-70509309D01*
X78541833Y-70414071D01*
X78589452Y-70366452D01*
X78684690Y-70318833D01*
X78875166Y-70318833D01*
X78970404Y-70366452D01*
X79018023Y-70414071D01*
X79065642Y-70509309D01*
X86994214Y-72064071D02*
X86851357Y-72111690D01*
X86803738Y-72159309D01*
X86756119Y-72254547D01*
X86756119Y-72397404D01*
X86803738Y-72492642D01*
X86851357Y-72540261D01*
X86946595Y-72587880D01*
X87327547Y-72587880D01*
X87327547Y-71587880D01*
X86994214Y-71587880D01*
X86898976Y-71635500D01*
X86851357Y-71683119D01*
X86803738Y-71778357D01*
X86803738Y-71873595D01*
X86851357Y-71968833D01*
X86898976Y-72016452D01*
X86994214Y-72064071D01*
X87327547Y-72064071D01*
X86375166Y-72302166D02*
X85898976Y-72302166D01*
X86470404Y-72587880D02*
X86137071Y-71587880D01*
X85803738Y-72587880D01*
X85613261Y-71587880D02*
X85041833Y-71587880D01*
X85327547Y-72587880D02*
X85327547Y-71587880D01*
X84851357Y-71587880D02*
X84279928Y-71587880D01*
X84565642Y-72587880D02*
X84565642Y-71587880D01*
X83946595Y-72064071D02*
X83613261Y-72064071D01*
X83470404Y-72587880D02*
X83946595Y-72587880D01*
X83946595Y-71587880D01*
X83470404Y-71587880D01*
X82470404Y-72587880D02*
X82803738Y-72111690D01*
X83041833Y-72587880D02*
X83041833Y-71587880D01*
X82660880Y-71587880D01*
X82565642Y-71635500D01*
X82518023Y-71683119D01*
X82470404Y-71778357D01*
X82470404Y-71921214D01*
X82518023Y-72016452D01*
X82565642Y-72064071D01*
X82660880Y-72111690D01*
X83041833Y-72111690D01*
X81851357Y-72111690D02*
X81851357Y-72587880D01*
X82184690Y-71587880D02*
X81851357Y-72111690D01*
X81518023Y-71587880D01*
X79851357Y-72492642D02*
X79898976Y-72540261D01*
X80041833Y-72587880D01*
X80137071Y-72587880D01*
X80279928Y-72540261D01*
X80375166Y-72445023D01*
X80422785Y-72349785D01*
X80470404Y-72159309D01*
X80470404Y-72016452D01*
X80422785Y-71825976D01*
X80375166Y-71730738D01*
X80279928Y-71635500D01*
X80137071Y-71587880D01*
X80041833Y-71587880D01*
X79898976Y-71635500D01*
X79851357Y-71683119D01*
X79422785Y-72587880D02*
X79422785Y-71587880D01*
X79422785Y-72064071D02*
X78851357Y-72064071D01*
X78851357Y-72587880D02*
X78851357Y-71587880D01*
X78422785Y-72302166D02*
X77946595Y-72302166D01*
X78518023Y-72587880D02*
X78184690Y-71587880D01*
X77851357Y-72587880D01*
X76946595Y-72587880D02*
X77279928Y-72111690D01*
X77518023Y-72587880D02*
X77518023Y-71587880D01*
X77137071Y-71587880D01*
X77041833Y-71635500D01*
X76994214Y-71683119D01*
X76946595Y-71778357D01*
X76946595Y-71921214D01*
X76994214Y-72016452D01*
X77041833Y-72064071D01*
X77137071Y-72111690D01*
X77518023Y-72111690D01*
X75994214Y-71635500D02*
X76089452Y-71587880D01*
X76232309Y-71587880D01*
X76375166Y-71635500D01*
X76470404Y-71730738D01*
X76518023Y-71825976D01*
X76565642Y-72016452D01*
X76565642Y-72159309D01*
X76518023Y-72349785D01*
X76470404Y-72445023D01*
X76375166Y-72540261D01*
X76232309Y-72587880D01*
X76137071Y-72587880D01*
X75994214Y-72540261D01*
X75946595Y-72492642D01*
X75946595Y-72159309D01*
X76137071Y-72159309D01*
X75518023Y-72064071D02*
X75184690Y-72064071D01*
X75041833Y-72587880D02*
X75518023Y-72587880D01*
X75518023Y-71587880D01*
X75041833Y-71587880D01*
X74041833Y-72587880D02*
X74375166Y-72111690D01*
X74613261Y-72587880D02*
X74613261Y-71587880D01*
X74232309Y-71587880D01*
X74137071Y-71635500D01*
X74089452Y-71683119D01*
X74041833Y-71778357D01*
X74041833Y-71921214D01*
X74089452Y-72016452D01*
X74137071Y-72064071D01*
X74232309Y-72111690D01*
X74613261Y-72111690D01*
X181300380Y-45061928D02*
X180300380Y-45061928D01*
X181300380Y-45633357D01*
X180300380Y-45633357D01*
X180300380Y-46300023D02*
X180300380Y-46490500D01*
X180348000Y-46585738D01*
X180443238Y-46680976D01*
X180633714Y-46728595D01*
X180967047Y-46728595D01*
X181157523Y-46680976D01*
X181252761Y-46585738D01*
X181300380Y-46490500D01*
X181300380Y-46300023D01*
X181252761Y-46204785D01*
X181157523Y-46109547D01*
X180967047Y-46061928D01*
X180633714Y-46061928D01*
X180443238Y-46109547D01*
X180348000Y-46204785D01*
X180300380Y-46300023D01*
X180300380Y-47014309D02*
X180300380Y-47585738D01*
X181300380Y-47300023D02*
X180300380Y-47300023D01*
X181205142Y-49252404D02*
X181252761Y-49204785D01*
X181300380Y-49061928D01*
X181300380Y-48966690D01*
X181252761Y-48823833D01*
X181157523Y-48728595D01*
X181062285Y-48680976D01*
X180871809Y-48633357D01*
X180728952Y-48633357D01*
X180538476Y-48680976D01*
X180443238Y-48728595D01*
X180348000Y-48823833D01*
X180300380Y-48966690D01*
X180300380Y-49061928D01*
X180348000Y-49204785D01*
X180395619Y-49252404D01*
X180300380Y-49871452D02*
X180300380Y-50061928D01*
X180348000Y-50157166D01*
X180443238Y-50252404D01*
X180633714Y-50300023D01*
X180967047Y-50300023D01*
X181157523Y-50252404D01*
X181252761Y-50157166D01*
X181300380Y-50061928D01*
X181300380Y-49871452D01*
X181252761Y-49776214D01*
X181157523Y-49680976D01*
X180967047Y-49633357D01*
X180633714Y-49633357D01*
X180443238Y-49680976D01*
X180348000Y-49776214D01*
X180300380Y-49871452D01*
X181300380Y-50728595D02*
X180300380Y-50728595D01*
X181300380Y-51300023D01*
X180300380Y-51300023D01*
X181300380Y-51776214D02*
X180300380Y-51776214D01*
X181300380Y-52347642D01*
X180300380Y-52347642D01*
X180776571Y-52823833D02*
X180776571Y-53157166D01*
X181300380Y-53300023D02*
X181300380Y-52823833D01*
X180300380Y-52823833D01*
X180300380Y-53300023D01*
X181205142Y-54300023D02*
X181252761Y-54252404D01*
X181300380Y-54109547D01*
X181300380Y-54014309D01*
X181252761Y-53871452D01*
X181157523Y-53776214D01*
X181062285Y-53728595D01*
X180871809Y-53680976D01*
X180728952Y-53680976D01*
X180538476Y-53728595D01*
X180443238Y-53776214D01*
X180348000Y-53871452D01*
X180300380Y-54014309D01*
X180300380Y-54109547D01*
X180348000Y-54252404D01*
X180395619Y-54300023D01*
X180300380Y-54585738D02*
X180300380Y-55157166D01*
X181300380Y-54871452D02*
X180300380Y-54871452D01*
X180776571Y-55490500D02*
X180776571Y-55823833D01*
X181300380Y-55966690D02*
X181300380Y-55490500D01*
X180300380Y-55490500D01*
X180300380Y-55966690D01*
X181300380Y-56395261D02*
X180300380Y-56395261D01*
X180300380Y-56633357D01*
X180348000Y-56776214D01*
X180443238Y-56871452D01*
X180538476Y-56919071D01*
X180728952Y-56966690D01*
X180871809Y-56966690D01*
X181062285Y-56919071D01*
X181157523Y-56871452D01*
X181252761Y-56776214D01*
X181300380Y-56633357D01*
X181300380Y-56395261D01*
X153042976Y-60904380D02*
X153376309Y-60428190D01*
X153614404Y-60904380D02*
X153614404Y-59904380D01*
X153233452Y-59904380D01*
X153138214Y-59952000D01*
X153090595Y-59999619D01*
X153042976Y-60094857D01*
X153042976Y-60237714D01*
X153090595Y-60332952D01*
X153138214Y-60380571D01*
X153233452Y-60428190D01*
X153614404Y-60428190D01*
X152915976Y-58300880D02*
X153392166Y-58300880D01*
X153392166Y-57300880D01*
X144089380Y-62047380D02*
X144422714Y-61571190D01*
X144660809Y-62047380D02*
X144660809Y-61047380D01*
X144279857Y-61047380D01*
X144184619Y-61095000D01*
X144137000Y-61142619D01*
X144089380Y-61237857D01*
X144089380Y-61380714D01*
X144137000Y-61475952D01*
X144184619Y-61523571D01*
X144279857Y-61571190D01*
X144660809Y-61571190D01*
X143660809Y-62047380D02*
X143660809Y-61047380D01*
X143184619Y-62047380D02*
X143184619Y-61047380D01*
X142613190Y-62047380D01*
X142613190Y-61047380D01*
X144089380Y-57348380D02*
X144565571Y-57348380D01*
X144565571Y-56348380D01*
X143756047Y-57348380D02*
X143756047Y-56348380D01*
X143279857Y-57348380D02*
X143279857Y-56348380D01*
X142708428Y-57348380D01*
X142708428Y-56348380D01*
X120998809Y-40457380D02*
X120998809Y-39457380D01*
X120427380Y-40457380D01*
X120427380Y-39457380D01*
X119760714Y-39457380D02*
X119570238Y-39457380D01*
X119475000Y-39505000D01*
X119379761Y-39600238D01*
X119332142Y-39790714D01*
X119332142Y-40124047D01*
X119379761Y-40314523D01*
X119475000Y-40409761D01*
X119570238Y-40457380D01*
X119760714Y-40457380D01*
X119855952Y-40409761D01*
X119951190Y-40314523D01*
X119998809Y-40124047D01*
X119998809Y-39790714D01*
X119951190Y-39600238D01*
X119855952Y-39505000D01*
X119760714Y-39457380D01*
X119046428Y-39457380D02*
X118475000Y-39457380D01*
X118760714Y-40457380D02*
X118760714Y-39457380D01*
X117379761Y-39457380D02*
X117379761Y-40266904D01*
X117332142Y-40362142D01*
X117284523Y-40409761D01*
X117189285Y-40457380D01*
X116998809Y-40457380D01*
X116903571Y-40409761D01*
X116855952Y-40362142D01*
X116808333Y-40266904D01*
X116808333Y-39457380D01*
X116379761Y-40409761D02*
X116236904Y-40457380D01*
X115998809Y-40457380D01*
X115903571Y-40409761D01*
X115855952Y-40362142D01*
X115808333Y-40266904D01*
X115808333Y-40171666D01*
X115855952Y-40076428D01*
X115903571Y-40028809D01*
X115998809Y-39981190D01*
X116189285Y-39933571D01*
X116284523Y-39885952D01*
X116332142Y-39838333D01*
X116379761Y-39743095D01*
X116379761Y-39647857D01*
X116332142Y-39552619D01*
X116284523Y-39505000D01*
X116189285Y-39457380D01*
X115951190Y-39457380D01*
X115808333Y-39505000D01*
X115379761Y-39933571D02*
X115046428Y-39933571D01*
X114903571Y-40457380D02*
X115379761Y-40457380D01*
X115379761Y-39457380D01*
X114903571Y-39457380D01*
X114475000Y-40457380D02*
X114475000Y-39457380D01*
X114236904Y-39457380D01*
X114094047Y-39505000D01*
X113998809Y-39600238D01*
X113951190Y-39695476D01*
X113903571Y-39885952D01*
X113903571Y-40028809D01*
X113951190Y-40219285D01*
X113998809Y-40314523D01*
X114094047Y-40409761D01*
X114236904Y-40457380D01*
X114475000Y-40457380D01*
D11*
X110109000Y-43434000D02*
X110109000Y-40894000D01*
X125222000Y-43434000D02*
X110109000Y-43434000D01*
X125222000Y-40894000D02*
X125222000Y-43434000D01*
X110109000Y-40894000D02*
X125222000Y-40894000D01*
D10*
X168338000Y-30678380D02*
X168338000Y-29678380D01*
X167861809Y-30678380D02*
X167861809Y-29678380D01*
X167290380Y-30678380D01*
X167290380Y-29678380D01*
X166814190Y-30678380D02*
X166814190Y-29678380D01*
X166433238Y-29678380D01*
X166338000Y-29726000D01*
X166290380Y-29773619D01*
X166242761Y-29868857D01*
X166242761Y-30011714D01*
X166290380Y-30106952D01*
X166338000Y-30154571D01*
X166433238Y-30202190D01*
X166814190Y-30202190D01*
X165814190Y-29678380D02*
X165814190Y-30487904D01*
X165766571Y-30583142D01*
X165718952Y-30630761D01*
X165623714Y-30678380D01*
X165433238Y-30678380D01*
X165338000Y-30630761D01*
X165290380Y-30583142D01*
X165242761Y-30487904D01*
X165242761Y-29678380D01*
X164909428Y-29678380D02*
X164338000Y-29678380D01*
X164623714Y-30678380D02*
X164623714Y-29678380D01*
X162718952Y-29726000D02*
X162814190Y-29678380D01*
X162957047Y-29678380D01*
X163099904Y-29726000D01*
X163195142Y-29821238D01*
X163242761Y-29916476D01*
X163290380Y-30106952D01*
X163290380Y-30249809D01*
X163242761Y-30440285D01*
X163195142Y-30535523D01*
X163099904Y-30630761D01*
X162957047Y-30678380D01*
X162861809Y-30678380D01*
X162718952Y-30630761D01*
X162671333Y-30583142D01*
X162671333Y-30249809D01*
X162861809Y-30249809D01*
X162290380Y-30392666D02*
X161814190Y-30392666D01*
X162385619Y-30678380D02*
X162052285Y-29678380D01*
X161718952Y-30678380D01*
X161385619Y-30678380D02*
X161385619Y-29678380D01*
X160909428Y-30678380D02*
X160909428Y-29678380D01*
X160338000Y-30678380D01*
X160338000Y-29678380D01*
X84382761Y-30249761D02*
X84239904Y-30297380D01*
X84001809Y-30297380D01*
X83906571Y-30249761D01*
X83858952Y-30202142D01*
X83811333Y-30106904D01*
X83811333Y-30011666D01*
X83858952Y-29916428D01*
X83906571Y-29868809D01*
X84001809Y-29821190D01*
X84192285Y-29773571D01*
X84287523Y-29725952D01*
X84335142Y-29678333D01*
X84382761Y-29583095D01*
X84382761Y-29487857D01*
X84335142Y-29392619D01*
X84287523Y-29345000D01*
X84192285Y-29297380D01*
X83954190Y-29297380D01*
X83811333Y-29345000D01*
X83382761Y-30297380D02*
X83382761Y-29297380D01*
X83001809Y-29297380D01*
X82906571Y-29345000D01*
X82858952Y-29392619D01*
X82811333Y-29487857D01*
X82811333Y-29630714D01*
X82858952Y-29725952D01*
X82906571Y-29773571D01*
X83001809Y-29821190D01*
X83382761Y-29821190D01*
X82382761Y-29773571D02*
X82049428Y-29773571D01*
X81906571Y-30297380D02*
X82382761Y-30297380D01*
X82382761Y-29297380D01*
X81906571Y-29297380D01*
X81525619Y-30011666D02*
X81049428Y-30011666D01*
X81620857Y-30297380D02*
X81287523Y-29297380D01*
X80954190Y-30297380D01*
X80620857Y-30297380D02*
X80620857Y-29297380D01*
X80049428Y-30297380D02*
X80478000Y-29725952D01*
X80049428Y-29297380D02*
X80620857Y-29868809D01*
X79620857Y-29773571D02*
X79287523Y-29773571D01*
X79144666Y-30297380D02*
X79620857Y-30297380D01*
X79620857Y-29297380D01*
X79144666Y-29297380D01*
X78144666Y-30297380D02*
X78478000Y-29821190D01*
X78716095Y-30297380D02*
X78716095Y-29297380D01*
X78335142Y-29297380D01*
X78239904Y-29345000D01*
X78192285Y-29392619D01*
X78144666Y-29487857D01*
X78144666Y-29630714D01*
X78192285Y-29725952D01*
X78239904Y-29773571D01*
X78335142Y-29821190D01*
X78716095Y-29821190D01*
X77097047Y-29297380D02*
X76763714Y-30297380D01*
X76430380Y-29297380D01*
X75906571Y-29297380D02*
X75716095Y-29297380D01*
X75620857Y-29345000D01*
X75525619Y-29440238D01*
X75478000Y-29630714D01*
X75478000Y-29964047D01*
X75525619Y-30154523D01*
X75620857Y-30249761D01*
X75716095Y-30297380D01*
X75906571Y-30297380D01*
X76001809Y-30249761D01*
X76097047Y-30154523D01*
X76144666Y-29964047D01*
X76144666Y-29630714D01*
X76097047Y-29440238D01*
X76001809Y-29345000D01*
X75906571Y-29297380D01*
X74573238Y-30297380D02*
X75049428Y-30297380D01*
X75049428Y-29297380D01*
X74239904Y-29297380D02*
X74239904Y-30106904D01*
X74192285Y-30202142D01*
X74144666Y-30249761D01*
X74049428Y-30297380D01*
X73858952Y-30297380D01*
X73763714Y-30249761D01*
X73716095Y-30202142D01*
X73668476Y-30106904D01*
X73668476Y-29297380D01*
X73192285Y-30297380D02*
X73192285Y-29297380D01*
X72858952Y-30011666D01*
X72525619Y-29297380D01*
X72525619Y-30297380D01*
X72049428Y-29773571D02*
X71716095Y-29773571D01*
X71573238Y-30297380D02*
X72049428Y-30297380D01*
X72049428Y-29297380D01*
X71573238Y-29297380D01*
X214167980Y-77446476D02*
X213167980Y-77446476D01*
X213167980Y-77827428D01*
X213215600Y-77922666D01*
X213263219Y-77970285D01*
X213358457Y-78017904D01*
X213501314Y-78017904D01*
X213596552Y-77970285D01*
X213644171Y-77922666D01*
X213691790Y-77827428D01*
X213691790Y-77446476D01*
X213167980Y-78636952D02*
X213167980Y-78827428D01*
X213215600Y-78922666D01*
X213310838Y-79017904D01*
X213501314Y-79065523D01*
X213834647Y-79065523D01*
X214025123Y-79017904D01*
X214120361Y-78922666D01*
X214167980Y-78827428D01*
X214167980Y-78636952D01*
X214120361Y-78541714D01*
X214025123Y-78446476D01*
X213834647Y-78398857D01*
X213501314Y-78398857D01*
X213310838Y-78446476D01*
X213215600Y-78541714D01*
X213167980Y-78636952D01*
X213167980Y-79398857D02*
X214167980Y-79636952D01*
X213453695Y-79827428D01*
X214167980Y-80017904D01*
X213167980Y-80256000D01*
X213644171Y-80636952D02*
X213644171Y-80970285D01*
X214167980Y-81113142D02*
X214167980Y-80636952D01*
X213167980Y-80636952D01*
X213167980Y-81113142D01*
X214167980Y-82113142D02*
X213691790Y-81779809D01*
X214167980Y-81541714D02*
X213167980Y-81541714D01*
X213167980Y-81922666D01*
X213215600Y-82017904D01*
X213263219Y-82065523D01*
X213358457Y-82113142D01*
X213501314Y-82113142D01*
X213596552Y-82065523D01*
X213644171Y-82017904D01*
X213691790Y-81922666D01*
X213691790Y-81541714D01*
X208849261Y-35330380D02*
X208277833Y-35330380D01*
X208563547Y-36330380D02*
X208563547Y-35330380D01*
X207563547Y-36282761D02*
X207658785Y-36330380D01*
X207849261Y-36330380D01*
X207944500Y-36282761D01*
X207992119Y-36187523D01*
X207992119Y-35806571D01*
X207944500Y-35711333D01*
X207849261Y-35663714D01*
X207658785Y-35663714D01*
X207563547Y-35711333D01*
X207515928Y-35806571D01*
X207515928Y-35901809D01*
X207992119Y-35997047D01*
X206706404Y-36282761D02*
X206801642Y-36330380D01*
X206992119Y-36330380D01*
X207087357Y-36282761D01*
X207134976Y-36187523D01*
X207134976Y-35806571D01*
X207087357Y-35711333D01*
X206992119Y-35663714D01*
X206801642Y-35663714D01*
X206706404Y-35711333D01*
X206658785Y-35806571D01*
X206658785Y-35901809D01*
X207134976Y-35997047D01*
X206230214Y-35663714D02*
X206230214Y-36330380D01*
X206230214Y-35758952D02*
X206182595Y-35711333D01*
X206087357Y-35663714D01*
X205944500Y-35663714D01*
X205849261Y-35711333D01*
X205801642Y-35806571D01*
X205801642Y-36330380D01*
X205373071Y-36282761D02*
X205277833Y-36330380D01*
X205087357Y-36330380D01*
X204992119Y-36282761D01*
X204944500Y-36187523D01*
X204944500Y-36139904D01*
X204992119Y-36044666D01*
X205087357Y-35997047D01*
X205230214Y-35997047D01*
X205325452Y-35949428D01*
X205373071Y-35854190D01*
X205373071Y-35806571D01*
X205325452Y-35711333D01*
X205230214Y-35663714D01*
X205087357Y-35663714D01*
X204992119Y-35711333D01*
X204611166Y-35663714D02*
X204373071Y-36330380D01*
X204134976Y-35663714D02*
X204373071Y-36330380D01*
X204468309Y-36568476D01*
X204515928Y-36616095D01*
X204611166Y-36663714D01*
X202420690Y-36330380D02*
X202754023Y-35854190D01*
X202992119Y-36330380D02*
X202992119Y-35330380D01*
X202611166Y-35330380D01*
X202515928Y-35378000D01*
X202468309Y-35425619D01*
X202420690Y-35520857D01*
X202420690Y-35663714D01*
X202468309Y-35758952D01*
X202515928Y-35806571D01*
X202611166Y-35854190D01*
X202992119Y-35854190D01*
X201563547Y-35663714D02*
X201563547Y-36330380D01*
X201801642Y-35282761D02*
X202039738Y-35997047D01*
X201420690Y-35997047D01*
X200611166Y-35663714D02*
X200611166Y-36473238D01*
X200658785Y-36568476D01*
X200706404Y-36616095D01*
X200801642Y-36663714D01*
X200944500Y-36663714D01*
X201039738Y-36616095D01*
X200611166Y-36282761D02*
X200706404Y-36330380D01*
X200896880Y-36330380D01*
X200992119Y-36282761D01*
X201039738Y-36235142D01*
X201087357Y-36139904D01*
X201087357Y-35854190D01*
X201039738Y-35758952D01*
X200992119Y-35711333D01*
X200896880Y-35663714D01*
X200706404Y-35663714D01*
X200611166Y-35711333D01*
X199754023Y-36282761D02*
X199849261Y-36330380D01*
X200039738Y-36330380D01*
X200134976Y-36282761D01*
X200182595Y-36187523D01*
X200182595Y-35806571D01*
X200134976Y-35711333D01*
X200039738Y-35663714D01*
X199849261Y-35663714D01*
X199754023Y-35711333D01*
X199706404Y-35806571D01*
X199706404Y-35901809D01*
X200182595Y-35997047D01*
X198515928Y-36330380D02*
X198515928Y-35330380D01*
X198134976Y-35330380D01*
X198039738Y-35378000D01*
X197992119Y-35425619D01*
X197944500Y-35520857D01*
X197944500Y-35663714D01*
X197992119Y-35758952D01*
X198039738Y-35806571D01*
X198134976Y-35854190D01*
X198515928Y-35854190D01*
X197515928Y-36330380D02*
X197515928Y-35663714D01*
X197515928Y-35854190D02*
X197468309Y-35758952D01*
X197420690Y-35711333D01*
X197325452Y-35663714D01*
X197230214Y-35663714D01*
X196754023Y-36330380D02*
X196849261Y-36282761D01*
X196896880Y-36235142D01*
X196944500Y-36139904D01*
X196944500Y-35854190D01*
X196896880Y-35758952D01*
X196849261Y-35711333D01*
X196754023Y-35663714D01*
X196611166Y-35663714D01*
X196515928Y-35711333D01*
X196468309Y-35758952D01*
X196420690Y-35854190D01*
X196420690Y-36139904D01*
X196468309Y-36235142D01*
X196515928Y-36282761D01*
X196611166Y-36330380D01*
X196754023Y-36330380D01*
X194658785Y-36330380D02*
X194992119Y-35854190D01*
X195230214Y-36330380D02*
X195230214Y-35330380D01*
X194849261Y-35330380D01*
X194754023Y-35378000D01*
X194706404Y-35425619D01*
X194658785Y-35520857D01*
X194658785Y-35663714D01*
X194706404Y-35758952D01*
X194754023Y-35806571D01*
X194849261Y-35854190D01*
X195230214Y-35854190D01*
X193849261Y-36282761D02*
X193944500Y-36330380D01*
X194134976Y-36330380D01*
X194230214Y-36282761D01*
X194277833Y-36187523D01*
X194277833Y-35806571D01*
X194230214Y-35711333D01*
X194134976Y-35663714D01*
X193944500Y-35663714D01*
X193849261Y-35711333D01*
X193801642Y-35806571D01*
X193801642Y-35901809D01*
X194277833Y-35997047D01*
X193468309Y-35663714D02*
X193230214Y-36330380D01*
X192992119Y-35663714D01*
X192611166Y-36235142D02*
X192563547Y-36282761D01*
X192611166Y-36330380D01*
X192658785Y-36282761D01*
X192611166Y-36235142D01*
X192611166Y-36330380D01*
X192611166Y-35711333D02*
X192563547Y-35758952D01*
X192611166Y-35806571D01*
X192658785Y-35758952D01*
X192611166Y-35711333D01*
X192611166Y-35806571D01*
X191420690Y-35425619D02*
X191373071Y-35378000D01*
X191277833Y-35330380D01*
X191039738Y-35330380D01*
X190944500Y-35378000D01*
X190896880Y-35425619D01*
X190849261Y-35520857D01*
X190849261Y-35616095D01*
X190896880Y-35758952D01*
X191468309Y-36330380D01*
X190849261Y-36330380D01*
X208801642Y-36980380D02*
X208563547Y-37980380D01*
X208373071Y-37266095D01*
X208182595Y-37980380D01*
X207944500Y-36980380D01*
X207563547Y-37980380D02*
X207563547Y-37313714D01*
X207563547Y-36980380D02*
X207611166Y-37028000D01*
X207563547Y-37075619D01*
X207515928Y-37028000D01*
X207563547Y-36980380D01*
X207563547Y-37075619D01*
X207230214Y-37313714D02*
X206849261Y-37313714D01*
X207087357Y-36980380D02*
X207087357Y-37837523D01*
X207039738Y-37932761D01*
X206944500Y-37980380D01*
X206849261Y-37980380D01*
X206515928Y-37980380D02*
X206515928Y-36980380D01*
X206087357Y-37980380D02*
X206087357Y-37456571D01*
X206134976Y-37361333D01*
X206230214Y-37313714D01*
X206373071Y-37313714D01*
X206468309Y-37361333D01*
X206515928Y-37408952D01*
X204515928Y-37456571D02*
X204373071Y-37504190D01*
X204325452Y-37551809D01*
X204277833Y-37647047D01*
X204277833Y-37789904D01*
X204325452Y-37885142D01*
X204373071Y-37932761D01*
X204468309Y-37980380D01*
X204849261Y-37980380D01*
X204849261Y-36980380D01*
X204515928Y-36980380D01*
X204420690Y-37028000D01*
X204373071Y-37075619D01*
X204325452Y-37170857D01*
X204325452Y-37266095D01*
X204373071Y-37361333D01*
X204420690Y-37408952D01*
X204515928Y-37456571D01*
X204849261Y-37456571D01*
X203706404Y-37980380D02*
X203801642Y-37932761D01*
X203849261Y-37885142D01*
X203896880Y-37789904D01*
X203896880Y-37504190D01*
X203849261Y-37408952D01*
X203801642Y-37361333D01*
X203706404Y-37313714D01*
X203563547Y-37313714D01*
X203468309Y-37361333D01*
X203420690Y-37408952D01*
X203373071Y-37504190D01*
X203373071Y-37789904D01*
X203420690Y-37885142D01*
X203468309Y-37932761D01*
X203563547Y-37980380D01*
X203706404Y-37980380D01*
X202801642Y-37980380D02*
X202896880Y-37932761D01*
X202944500Y-37885142D01*
X202992119Y-37789904D01*
X202992119Y-37504190D01*
X202944500Y-37408952D01*
X202896880Y-37361333D01*
X202801642Y-37313714D01*
X202658785Y-37313714D01*
X202563547Y-37361333D01*
X202515928Y-37408952D01*
X202468309Y-37504190D01*
X202468309Y-37789904D01*
X202515928Y-37885142D01*
X202563547Y-37932761D01*
X202658785Y-37980380D01*
X202801642Y-37980380D01*
X202087357Y-37932761D02*
X201992119Y-37980380D01*
X201801642Y-37980380D01*
X201706404Y-37932761D01*
X201658785Y-37837523D01*
X201658785Y-37789904D01*
X201706404Y-37694666D01*
X201801642Y-37647047D01*
X201944500Y-37647047D01*
X202039738Y-37599428D01*
X202087357Y-37504190D01*
X202087357Y-37456571D01*
X202039738Y-37361333D01*
X201944500Y-37313714D01*
X201801642Y-37313714D01*
X201706404Y-37361333D01*
X201373071Y-37313714D02*
X200992119Y-37313714D01*
X201230214Y-36980380D02*
X201230214Y-37837523D01*
X201182595Y-37932761D01*
X201087357Y-37980380D01*
X200992119Y-37980380D01*
X200277833Y-37932761D02*
X200373071Y-37980380D01*
X200563547Y-37980380D01*
X200658785Y-37932761D01*
X200706404Y-37837523D01*
X200706404Y-37456571D01*
X200658785Y-37361333D01*
X200563547Y-37313714D01*
X200373071Y-37313714D01*
X200277833Y-37361333D01*
X200230214Y-37456571D01*
X200230214Y-37551809D01*
X200706404Y-37647047D01*
X199801642Y-37980380D02*
X199801642Y-37313714D01*
X199801642Y-37504190D02*
X199754023Y-37408952D01*
X199706404Y-37361333D01*
X199611166Y-37313714D01*
X199515928Y-37313714D01*
X197992119Y-37980380D02*
X197992119Y-37456571D01*
X198039738Y-37361333D01*
X198134976Y-37313714D01*
X198325452Y-37313714D01*
X198420690Y-37361333D01*
X197992119Y-37932761D02*
X198087357Y-37980380D01*
X198325452Y-37980380D01*
X198420690Y-37932761D01*
X198468309Y-37837523D01*
X198468309Y-37742285D01*
X198420690Y-37647047D01*
X198325452Y-37599428D01*
X198087357Y-37599428D01*
X197992119Y-37551809D01*
X197515928Y-37313714D02*
X197515928Y-37980380D01*
X197515928Y-37408952D02*
X197468309Y-37361333D01*
X197373071Y-37313714D01*
X197230214Y-37313714D01*
X197134976Y-37361333D01*
X197087357Y-37456571D01*
X197087357Y-37980380D01*
X196182595Y-37980380D02*
X196182595Y-36980380D01*
X196182595Y-37932761D02*
X196277833Y-37980380D01*
X196468309Y-37980380D01*
X196563547Y-37932761D01*
X196611166Y-37885142D01*
X196658785Y-37789904D01*
X196658785Y-37504190D01*
X196611166Y-37408952D01*
X196563547Y-37361333D01*
X196468309Y-37313714D01*
X196277833Y-37313714D01*
X196182595Y-37361333D01*
X194944500Y-37456571D02*
X194611166Y-37456571D01*
X194468309Y-37980380D02*
X194944500Y-37980380D01*
X194944500Y-36980380D01*
X194468309Y-36980380D01*
X194039738Y-37313714D02*
X194039738Y-37980380D01*
X194039738Y-37408952D02*
X193992119Y-37361333D01*
X193896880Y-37313714D01*
X193754023Y-37313714D01*
X193658785Y-37361333D01*
X193611166Y-37456571D01*
X193611166Y-37980380D01*
X192706404Y-37932761D02*
X192801642Y-37980380D01*
X192992119Y-37980380D01*
X193087357Y-37932761D01*
X193134976Y-37885142D01*
X193182595Y-37789904D01*
X193182595Y-37504190D01*
X193134976Y-37408952D01*
X193087357Y-37361333D01*
X192992119Y-37313714D01*
X192801642Y-37313714D01*
X192706404Y-37361333D01*
X192134976Y-37980380D02*
X192230214Y-37932761D01*
X192277833Y-37885142D01*
X192325452Y-37789904D01*
X192325452Y-37504190D01*
X192277833Y-37408952D01*
X192230214Y-37361333D01*
X192134976Y-37313714D01*
X191992119Y-37313714D01*
X191896880Y-37361333D01*
X191849261Y-37408952D01*
X191801642Y-37504190D01*
X191801642Y-37789904D01*
X191849261Y-37885142D01*
X191896880Y-37932761D01*
X191992119Y-37980380D01*
X192134976Y-37980380D01*
X190944500Y-37980380D02*
X190944500Y-36980380D01*
X190944500Y-37932761D02*
X191039738Y-37980380D01*
X191230214Y-37980380D01*
X191325452Y-37932761D01*
X191373071Y-37885142D01*
X191420690Y-37789904D01*
X191420690Y-37504190D01*
X191373071Y-37408952D01*
X191325452Y-37361333D01*
X191230214Y-37313714D01*
X191039738Y-37313714D01*
X190944500Y-37361333D01*
X190087357Y-37932761D02*
X190182595Y-37980380D01*
X190373071Y-37980380D01*
X190468309Y-37932761D01*
X190515928Y-37837523D01*
X190515928Y-37456571D01*
X190468309Y-37361333D01*
X190373071Y-37313714D01*
X190182595Y-37313714D01*
X190087357Y-37361333D01*
X190039738Y-37456571D01*
X190039738Y-37551809D01*
X190515928Y-37647047D01*
X189611166Y-37980380D02*
X189611166Y-37313714D01*
X189611166Y-37504190D02*
X189563547Y-37408952D01*
X189515928Y-37361333D01*
X189420690Y-37313714D01*
X189325452Y-37313714D01*
X213142580Y-89285961D02*
X213952104Y-89285961D01*
X214047342Y-89333580D01*
X214094961Y-89381200D01*
X214142580Y-89476438D01*
X214142580Y-89666914D01*
X214094961Y-89762152D01*
X214047342Y-89809771D01*
X213952104Y-89857390D01*
X213142580Y-89857390D01*
X213856866Y-90285961D02*
X213856866Y-90762152D01*
X214142580Y-90190723D02*
X213142580Y-90524057D01*
X214142580Y-90857390D01*
X214142580Y-91762152D02*
X213666390Y-91428819D01*
X214142580Y-91190723D02*
X213142580Y-91190723D01*
X213142580Y-91571676D01*
X213190200Y-91666914D01*
X213237819Y-91714533D01*
X213333057Y-91762152D01*
X213475914Y-91762152D01*
X213571152Y-91714533D01*
X213618771Y-91666914D01*
X213666390Y-91571676D01*
X213666390Y-91190723D01*
X213142580Y-92047866D02*
X213142580Y-92619295D01*
X214142580Y-92333580D02*
X213142580Y-92333580D01*
X214015580Y-83936009D02*
X213015580Y-83936009D01*
X213110819Y-84364580D02*
X213063200Y-84412200D01*
X213015580Y-84507438D01*
X213015580Y-84745533D01*
X213063200Y-84840771D01*
X213110819Y-84888390D01*
X213206057Y-84936009D01*
X213301295Y-84936009D01*
X213444152Y-84888390D01*
X214015580Y-84316961D01*
X214015580Y-84936009D01*
X213920342Y-85936009D02*
X213967961Y-85888390D01*
X214015580Y-85745533D01*
X214015580Y-85650295D01*
X213967961Y-85507438D01*
X213872723Y-85412200D01*
X213777485Y-85364580D01*
X213587009Y-85316961D01*
X213444152Y-85316961D01*
X213253676Y-85364580D01*
X213158438Y-85412200D01*
X213063200Y-85507438D01*
X213015580Y-85650295D01*
X213015580Y-85745533D01*
X213063200Y-85888390D01*
X213110819Y-85936009D01*
X208605285Y-84453361D02*
X208462428Y-84500980D01*
X208224333Y-84500980D01*
X208129095Y-84453361D01*
X208081476Y-84405742D01*
X208033857Y-84310504D01*
X208033857Y-84215266D01*
X208081476Y-84120028D01*
X208129095Y-84072409D01*
X208224333Y-84024790D01*
X208414809Y-83977171D01*
X208510047Y-83929552D01*
X208557666Y-83881933D01*
X208605285Y-83786695D01*
X208605285Y-83691457D01*
X208557666Y-83596219D01*
X208510047Y-83548600D01*
X208414809Y-83500980D01*
X208176714Y-83500980D01*
X208033857Y-83548600D01*
X207605285Y-84500980D02*
X207605285Y-83500980D01*
X207367190Y-83500980D01*
X207224333Y-83548600D01*
X207129095Y-83643838D01*
X207081476Y-83739076D01*
X207033857Y-83929552D01*
X207033857Y-84072409D01*
X207081476Y-84262885D01*
X207129095Y-84358123D01*
X207224333Y-84453361D01*
X207367190Y-84500980D01*
X207605285Y-84500980D01*
X206652904Y-84215266D02*
X206176714Y-84215266D01*
X206748142Y-84500980D02*
X206414809Y-83500980D01*
X206081476Y-84500980D01*
X208378276Y-86713961D02*
X208235419Y-86761580D01*
X207997323Y-86761580D01*
X207902085Y-86713961D01*
X207854466Y-86666342D01*
X207806847Y-86571104D01*
X207806847Y-86475866D01*
X207854466Y-86380628D01*
X207902085Y-86333009D01*
X207997323Y-86285390D01*
X208187800Y-86237771D01*
X208283038Y-86190152D01*
X208330657Y-86142533D01*
X208378276Y-86047295D01*
X208378276Y-85952057D01*
X208330657Y-85856819D01*
X208283038Y-85809200D01*
X208187800Y-85761580D01*
X207949704Y-85761580D01*
X207806847Y-85809200D01*
X206806847Y-86666342D02*
X206854466Y-86713961D01*
X206997323Y-86761580D01*
X207092561Y-86761580D01*
X207235419Y-86713961D01*
X207330657Y-86618723D01*
X207378276Y-86523485D01*
X207425895Y-86333009D01*
X207425895Y-86190152D01*
X207378276Y-85999676D01*
X207330657Y-85904438D01*
X207235419Y-85809200D01*
X207092561Y-85761580D01*
X206997323Y-85761580D01*
X206854466Y-85809200D01*
X206806847Y-85856819D01*
X205902085Y-86761580D02*
X206378276Y-86761580D01*
X206378276Y-85761580D01*
X208203704Y-78189200D02*
X208298942Y-78141580D01*
X208441800Y-78141580D01*
X208584657Y-78189200D01*
X208679895Y-78284438D01*
X208727514Y-78379676D01*
X208775133Y-78570152D01*
X208775133Y-78713009D01*
X208727514Y-78903485D01*
X208679895Y-78998723D01*
X208584657Y-79093961D01*
X208441800Y-79141580D01*
X208346561Y-79141580D01*
X208203704Y-79093961D01*
X208156085Y-79046342D01*
X208156085Y-78713009D01*
X208346561Y-78713009D01*
X207727514Y-79141580D02*
X207727514Y-78141580D01*
X207156085Y-79141580D01*
X207156085Y-78141580D01*
X206679895Y-79141580D02*
X206679895Y-78141580D01*
X206441800Y-78141580D01*
X206298942Y-78189200D01*
X206203704Y-78284438D01*
X206156085Y-78379676D01*
X206108466Y-78570152D01*
X206108466Y-78713009D01*
X206156085Y-78903485D01*
X206203704Y-78998723D01*
X206298942Y-79093961D01*
X206441800Y-79141580D01*
X206679895Y-79141580D01*
X208530676Y-80833980D02*
X207911628Y-80833980D01*
X208244961Y-81214933D01*
X208102104Y-81214933D01*
X208006866Y-81262552D01*
X207959247Y-81310171D01*
X207911628Y-81405409D01*
X207911628Y-81643504D01*
X207959247Y-81738742D01*
X208006866Y-81786361D01*
X208102104Y-81833980D01*
X208387819Y-81833980D01*
X208483057Y-81786361D01*
X208530676Y-81738742D01*
X207578295Y-81167314D02*
X207340200Y-81833980D01*
X207102104Y-81167314D01*
X206816390Y-80833980D02*
X206197342Y-80833980D01*
X206530676Y-81214933D01*
X206387819Y-81214933D01*
X206292580Y-81262552D01*
X206244961Y-81310171D01*
X206197342Y-81405409D01*
X206197342Y-81643504D01*
X206244961Y-81738742D01*
X206292580Y-81786361D01*
X206387819Y-81833980D01*
X206673533Y-81833980D01*
X206768771Y-81786361D01*
X206816390Y-81738742D01*
X208527495Y-91146380D02*
X207956066Y-91146380D01*
X208241780Y-92146380D02*
X208241780Y-91146380D01*
X207717971Y-91146380D02*
X207051304Y-92146380D01*
X207051304Y-91146380D02*
X207717971Y-92146380D01*
X206527495Y-91574952D02*
X206622733Y-91527333D01*
X206670352Y-91479714D01*
X206717971Y-91384476D01*
X206717971Y-91336857D01*
X206670352Y-91241619D01*
X206622733Y-91194000D01*
X206527495Y-91146380D01*
X206337019Y-91146380D01*
X206241780Y-91194000D01*
X206194161Y-91241619D01*
X206146542Y-91336857D01*
X206146542Y-91384476D01*
X206194161Y-91479714D01*
X206241780Y-91527333D01*
X206337019Y-91574952D01*
X206527495Y-91574952D01*
X206622733Y-91622571D01*
X206670352Y-91670190D01*
X206717971Y-91765428D01*
X206717971Y-91955904D01*
X206670352Y-92051142D01*
X206622733Y-92098761D01*
X206527495Y-92146380D01*
X206337019Y-92146380D01*
X206241780Y-92098761D01*
X206194161Y-92051142D01*
X206146542Y-91955904D01*
X206146542Y-91765428D01*
X206194161Y-91670190D01*
X206241780Y-91622571D01*
X206337019Y-91574952D01*
X207703657Y-89453980D02*
X208036990Y-88977790D01*
X208275085Y-89453980D02*
X208275085Y-88453980D01*
X207894133Y-88453980D01*
X207798895Y-88501600D01*
X207751276Y-88549219D01*
X207703657Y-88644457D01*
X207703657Y-88787314D01*
X207751276Y-88882552D01*
X207798895Y-88930171D01*
X207894133Y-88977790D01*
X208275085Y-88977790D01*
X207370323Y-88453980D02*
X206703657Y-89453980D01*
X206703657Y-88453980D02*
X207370323Y-89453980D01*
X206179847Y-88882552D02*
X206275085Y-88834933D01*
X206322704Y-88787314D01*
X206370323Y-88692076D01*
X206370323Y-88644457D01*
X206322704Y-88549219D01*
X206275085Y-88501600D01*
X206179847Y-88453980D01*
X205989371Y-88453980D01*
X205894133Y-88501600D01*
X205846514Y-88549219D01*
X205798895Y-88644457D01*
X205798895Y-88692076D01*
X205846514Y-88787314D01*
X205894133Y-88834933D01*
X205989371Y-88882552D01*
X206179847Y-88882552D01*
X206275085Y-88930171D01*
X206322704Y-88977790D01*
X206370323Y-89073028D01*
X206370323Y-89263504D01*
X206322704Y-89358742D01*
X206275085Y-89406361D01*
X206179847Y-89453980D01*
X205989371Y-89453980D01*
X205894133Y-89406361D01*
X205846514Y-89358742D01*
X205798895Y-89263504D01*
X205798895Y-89073028D01*
X205846514Y-88977790D01*
X205894133Y-88930171D01*
X205989371Y-88882552D01*
X172211904Y-139842857D02*
X170688095Y-139842857D01*
X101091904Y-139842857D02*
X99568095Y-139842857D01*
X100330000Y-140604761D02*
X100330000Y-139080952D01*
X208373071Y-34091571D02*
X208706404Y-34091571D01*
X208706404Y-34615380D02*
X208706404Y-33615380D01*
X208230214Y-33615380D01*
X207706404Y-34615380D02*
X207801642Y-34567761D01*
X207849261Y-34520142D01*
X207896880Y-34424904D01*
X207896880Y-34139190D01*
X207849261Y-34043952D01*
X207801642Y-33996333D01*
X207706404Y-33948714D01*
X207563547Y-33948714D01*
X207468309Y-33996333D01*
X207420690Y-34043952D01*
X207373071Y-34139190D01*
X207373071Y-34424904D01*
X207420690Y-34520142D01*
X207468309Y-34567761D01*
X207563547Y-34615380D01*
X207706404Y-34615380D01*
X206944500Y-34615380D02*
X206944500Y-33948714D01*
X206944500Y-34139190D02*
X206896880Y-34043952D01*
X206849261Y-33996333D01*
X206754023Y-33948714D01*
X206658785Y-33948714D01*
X205706404Y-33615380D02*
X205134976Y-33615380D01*
X205420690Y-34615380D02*
X205420690Y-33615380D01*
X204420690Y-34567761D02*
X204515928Y-34615380D01*
X204706404Y-34615380D01*
X204801642Y-34567761D01*
X204849261Y-34472523D01*
X204849261Y-34091571D01*
X204801642Y-33996333D01*
X204706404Y-33948714D01*
X204515928Y-33948714D01*
X204420690Y-33996333D01*
X204373071Y-34091571D01*
X204373071Y-34186809D01*
X204849261Y-34282047D01*
X203563547Y-34567761D02*
X203658785Y-34615380D01*
X203849261Y-34615380D01*
X203944500Y-34567761D01*
X203992119Y-34472523D01*
X203992119Y-34091571D01*
X203944500Y-33996333D01*
X203849261Y-33948714D01*
X203658785Y-33948714D01*
X203563547Y-33996333D01*
X203515928Y-34091571D01*
X203515928Y-34186809D01*
X203992119Y-34282047D01*
X203087357Y-33948714D02*
X203087357Y-34615380D01*
X203087357Y-34043952D02*
X203039738Y-33996333D01*
X202944500Y-33948714D01*
X202801642Y-33948714D01*
X202706404Y-33996333D01*
X202658785Y-34091571D01*
X202658785Y-34615380D01*
X202230214Y-34567761D02*
X202134976Y-34615380D01*
X201944500Y-34615380D01*
X201849261Y-34567761D01*
X201801642Y-34472523D01*
X201801642Y-34424904D01*
X201849261Y-34329666D01*
X201944500Y-34282047D01*
X202087357Y-34282047D01*
X202182595Y-34234428D01*
X202230214Y-34139190D01*
X202230214Y-34091571D01*
X202182595Y-33996333D01*
X202087357Y-33948714D01*
X201944500Y-33948714D01*
X201849261Y-33996333D01*
X201468309Y-33948714D02*
X201230214Y-34615380D01*
X200992119Y-33948714D02*
X201230214Y-34615380D01*
X201325452Y-34853476D01*
X201373071Y-34901095D01*
X201468309Y-34948714D01*
X199420690Y-33948714D02*
X199420690Y-34615380D01*
X199658785Y-33567761D02*
X199896880Y-34282047D01*
X199277833Y-34282047D01*
X198896880Y-34520142D02*
X198849261Y-34567761D01*
X198896880Y-34615380D01*
X198944500Y-34567761D01*
X198896880Y-34520142D01*
X198896880Y-34615380D01*
X197896880Y-34615380D02*
X198468309Y-34615380D01*
X198182595Y-34615380D02*
X198182595Y-33615380D01*
X198277833Y-33758238D01*
X198373071Y-33853476D01*
X198468309Y-33901095D01*
X139731428Y-99417142D02*
X139779047Y-99464761D01*
X139921904Y-99512380D01*
X140017142Y-99512380D01*
X140160000Y-99464761D01*
X140255238Y-99369523D01*
X140302857Y-99274285D01*
X140350476Y-99083809D01*
X140350476Y-98940952D01*
X140302857Y-98750476D01*
X140255238Y-98655238D01*
X140160000Y-98560000D01*
X140017142Y-98512380D01*
X139921904Y-98512380D01*
X139779047Y-98560000D01*
X139731428Y-98607619D01*
X138731428Y-99512380D02*
X139064761Y-99036190D01*
X139302857Y-99512380D02*
X139302857Y-98512380D01*
X138921904Y-98512380D01*
X138826666Y-98560000D01*
X138779047Y-98607619D01*
X138731428Y-98702857D01*
X138731428Y-98845714D01*
X138779047Y-98940952D01*
X138826666Y-98988571D01*
X138921904Y-99036190D01*
X139302857Y-99036190D01*
X137779047Y-99512380D02*
X138350476Y-99512380D01*
X138064761Y-99512380D02*
X138064761Y-98512380D01*
X138160000Y-98655238D01*
X138255238Y-98750476D01*
X138350476Y-98798095D01*
X137207619Y-98940952D02*
X137302857Y-98893333D01*
X137350476Y-98845714D01*
X137398095Y-98750476D01*
X137398095Y-98702857D01*
X137350476Y-98607619D01*
X137302857Y-98560000D01*
X137207619Y-98512380D01*
X137017142Y-98512380D01*
X136921904Y-98560000D01*
X136874285Y-98607619D01*
X136826666Y-98702857D01*
X136826666Y-98750476D01*
X136874285Y-98845714D01*
X136921904Y-98893333D01*
X137017142Y-98940952D01*
X137207619Y-98940952D01*
X137302857Y-98988571D01*
X137350476Y-99036190D01*
X137398095Y-99131428D01*
X137398095Y-99321904D01*
X137350476Y-99417142D01*
X137302857Y-99464761D01*
X137207619Y-99512380D01*
X137017142Y-99512380D01*
X136921904Y-99464761D01*
X136874285Y-99417142D01*
X136826666Y-99321904D01*
X136826666Y-99131428D01*
X136874285Y-99036190D01*
X136921904Y-98988571D01*
X137017142Y-98940952D01*
X135969523Y-98512380D02*
X136160000Y-98512380D01*
X136255238Y-98560000D01*
X136302857Y-98607619D01*
X136398095Y-98750476D01*
X136445714Y-98940952D01*
X136445714Y-99321904D01*
X136398095Y-99417142D01*
X136350476Y-99464761D01*
X136255238Y-99512380D01*
X136064761Y-99512380D01*
X135969523Y-99464761D01*
X135921904Y-99417142D01*
X135874285Y-99321904D01*
X135874285Y-99083809D01*
X135921904Y-98988571D01*
X135969523Y-98940952D01*
X136064761Y-98893333D01*
X136255238Y-98893333D01*
X136350476Y-98940952D01*
X136398095Y-98988571D01*
X136445714Y-99083809D01*
X134969523Y-98512380D02*
X135445714Y-98512380D01*
X135493333Y-98988571D01*
X135445714Y-98940952D01*
X135350476Y-98893333D01*
X135112380Y-98893333D01*
X135017142Y-98940952D01*
X134969523Y-98988571D01*
X134921904Y-99083809D01*
X134921904Y-99321904D01*
X134969523Y-99417142D01*
X135017142Y-99464761D01*
X135112380Y-99512380D01*
X135350476Y-99512380D01*
X135445714Y-99464761D01*
X135493333Y-99417142D01*
X134302857Y-98512380D02*
X134207619Y-98512380D01*
X134112380Y-98560000D01*
X134064761Y-98607619D01*
X134017142Y-98702857D01*
X133969523Y-98893333D01*
X133969523Y-99131428D01*
X134017142Y-99321904D01*
X134064761Y-99417142D01*
X134112380Y-99464761D01*
X134207619Y-99512380D01*
X134302857Y-99512380D01*
X134398095Y-99464761D01*
X134445714Y-99417142D01*
X134493333Y-99321904D01*
X134540952Y-99131428D01*
X134540952Y-98893333D01*
X134493333Y-98702857D01*
X134445714Y-98607619D01*
X134398095Y-98560000D01*
X134302857Y-98512380D01*
X208706404Y-32075380D02*
X208706404Y-31075380D01*
X208277833Y-32075380D02*
X208277833Y-31551571D01*
X208325452Y-31456333D01*
X208420690Y-31408714D01*
X208563547Y-31408714D01*
X208658785Y-31456333D01*
X208706404Y-31503952D01*
X207944500Y-31408714D02*
X207563547Y-31408714D01*
X207801642Y-31075380D02*
X207801642Y-31932523D01*
X207754023Y-32027761D01*
X207658785Y-32075380D01*
X207563547Y-32075380D01*
X207373071Y-31408714D02*
X206992119Y-31408714D01*
X207230214Y-31075380D02*
X207230214Y-31932523D01*
X207182595Y-32027761D01*
X207087357Y-32075380D01*
X206992119Y-32075380D01*
X206658785Y-31408714D02*
X206658785Y-32408714D01*
X206658785Y-31456333D02*
X206563547Y-31408714D01*
X206373071Y-31408714D01*
X206277833Y-31456333D01*
X206230214Y-31503952D01*
X206182595Y-31599190D01*
X206182595Y-31884904D01*
X206230214Y-31980142D01*
X206277833Y-32027761D01*
X206373071Y-32075380D01*
X206563547Y-32075380D01*
X206658785Y-32027761D01*
X205801642Y-32027761D02*
X205706404Y-32075380D01*
X205515928Y-32075380D01*
X205420690Y-32027761D01*
X205373071Y-31932523D01*
X205373071Y-31884904D01*
X205420690Y-31789666D01*
X205515928Y-31742047D01*
X205658785Y-31742047D01*
X205754023Y-31694428D01*
X205801642Y-31599190D01*
X205801642Y-31551571D01*
X205754023Y-31456333D01*
X205658785Y-31408714D01*
X205515928Y-31408714D01*
X205420690Y-31456333D01*
X204944500Y-31980142D02*
X204896880Y-32027761D01*
X204944500Y-32075380D01*
X204992119Y-32027761D01*
X204944500Y-31980142D01*
X204944500Y-32075380D01*
X204944500Y-31456333D02*
X204896880Y-31503952D01*
X204944500Y-31551571D01*
X204992119Y-31503952D01*
X204944500Y-31456333D01*
X204944500Y-31551571D01*
X203754023Y-31027761D02*
X204611166Y-32313476D01*
X202706404Y-31027761D02*
X203563547Y-32313476D01*
X202515928Y-31408714D02*
X202134976Y-31408714D01*
X202373071Y-31075380D02*
X202373071Y-31932523D01*
X202325452Y-32027761D01*
X202230214Y-32075380D01*
X202134976Y-32075380D01*
X201896880Y-31408714D02*
X201706404Y-32075380D01*
X201515928Y-31599190D01*
X201325452Y-32075380D01*
X201134976Y-31408714D01*
X200611166Y-32075380D02*
X200706404Y-32027761D01*
X200754023Y-31980142D01*
X200801642Y-31884904D01*
X200801642Y-31599190D01*
X200754023Y-31503952D01*
X200706404Y-31456333D01*
X200611166Y-31408714D01*
X200468309Y-31408714D01*
X200373071Y-31456333D01*
X200325452Y-31503952D01*
X200277833Y-31599190D01*
X200277833Y-31884904D01*
X200325452Y-31980142D01*
X200373071Y-32027761D01*
X200468309Y-32075380D01*
X200611166Y-32075380D01*
X199849261Y-32075380D02*
X199849261Y-31075380D01*
X199849261Y-31456333D02*
X199754023Y-31408714D01*
X199563547Y-31408714D01*
X199468309Y-31456333D01*
X199420690Y-31503952D01*
X199373071Y-31599190D01*
X199373071Y-31884904D01*
X199420690Y-31980142D01*
X199468309Y-32027761D01*
X199563547Y-32075380D01*
X199754023Y-32075380D01*
X199849261Y-32027761D01*
X198944500Y-32075380D02*
X198944500Y-31408714D01*
X198944500Y-31075380D02*
X198992119Y-31123000D01*
X198944500Y-31170619D01*
X198896880Y-31123000D01*
X198944500Y-31075380D01*
X198944500Y-31170619D01*
X198611166Y-31408714D02*
X198230214Y-31408714D01*
X198468309Y-31075380D02*
X198468309Y-31932523D01*
X198420690Y-32027761D01*
X198325452Y-32075380D01*
X198230214Y-32075380D01*
X198039738Y-31408714D02*
X197658785Y-31408714D01*
X197896880Y-31075380D02*
X197896880Y-31932523D01*
X197849261Y-32027761D01*
X197754023Y-32075380D01*
X197658785Y-32075380D01*
X197325452Y-32075380D02*
X197325452Y-31408714D01*
X197325452Y-31075380D02*
X197373071Y-31123000D01*
X197325452Y-31170619D01*
X197277833Y-31123000D01*
X197325452Y-31075380D01*
X197325452Y-31170619D01*
X196849261Y-31408714D02*
X196849261Y-32075380D01*
X196849261Y-31503952D02*
X196801642Y-31456333D01*
X196706404Y-31408714D01*
X196563547Y-31408714D01*
X196468309Y-31456333D01*
X196420690Y-31551571D01*
X196420690Y-32075380D01*
X195944500Y-32075380D02*
X195944500Y-31075380D01*
X195849261Y-31694428D02*
X195563547Y-32075380D01*
X195563547Y-31408714D02*
X195944500Y-31789666D01*
X194754023Y-32027761D02*
X194849261Y-32075380D01*
X195039738Y-32075380D01*
X195134976Y-32027761D01*
X195182595Y-31932523D01*
X195182595Y-31551571D01*
X195134976Y-31456333D01*
X195039738Y-31408714D01*
X194849261Y-31408714D01*
X194754023Y-31456333D01*
X194706404Y-31551571D01*
X194706404Y-31646809D01*
X195182595Y-31742047D01*
X194277833Y-32075380D02*
X194277833Y-31408714D01*
X194277833Y-31599190D02*
X194230214Y-31503952D01*
X194182595Y-31456333D01*
X194087357Y-31408714D01*
X193992119Y-31408714D01*
X193658785Y-31980142D02*
X193611166Y-32027761D01*
X193658785Y-32075380D01*
X193706404Y-32027761D01*
X193658785Y-31980142D01*
X193658785Y-32075380D01*
X192754023Y-32027761D02*
X192849261Y-32075380D01*
X193039738Y-32075380D01*
X193134976Y-32027761D01*
X193182595Y-31980142D01*
X193230214Y-31884904D01*
X193230214Y-31599190D01*
X193182595Y-31503952D01*
X193134976Y-31456333D01*
X193039738Y-31408714D01*
X192849261Y-31408714D01*
X192754023Y-31456333D01*
X192182595Y-32075380D02*
X192277833Y-32027761D01*
X192325452Y-31980142D01*
X192373071Y-31884904D01*
X192373071Y-31599190D01*
X192325452Y-31503952D01*
X192277833Y-31456333D01*
X192182595Y-31408714D01*
X192039738Y-31408714D01*
X191944500Y-31456333D01*
X191896880Y-31503952D01*
X191849261Y-31599190D01*
X191849261Y-31884904D01*
X191896880Y-31980142D01*
X191944500Y-32027761D01*
X192039738Y-32075380D01*
X192182595Y-32075380D01*
X191420690Y-32075380D02*
X191420690Y-31408714D01*
X191420690Y-31503952D02*
X191373071Y-31456333D01*
X191277833Y-31408714D01*
X191134976Y-31408714D01*
X191039738Y-31456333D01*
X190992119Y-31551571D01*
X190992119Y-32075380D01*
X190992119Y-31551571D02*
X190944500Y-31456333D01*
X190849261Y-31408714D01*
X190706404Y-31408714D01*
X190611166Y-31456333D01*
X190563547Y-31551571D01*
X190563547Y-32075380D01*
X208706404Y-29535380D02*
X208706404Y-28535380D01*
X208468309Y-28535380D01*
X208325452Y-28583000D01*
X208230214Y-28678238D01*
X208182595Y-28773476D01*
X208134976Y-28963952D01*
X208134976Y-29106809D01*
X208182595Y-29297285D01*
X208230214Y-29392523D01*
X208325452Y-29487761D01*
X208468309Y-29535380D01*
X208706404Y-29535380D01*
X207325452Y-29487761D02*
X207420690Y-29535380D01*
X207611166Y-29535380D01*
X207706404Y-29487761D01*
X207754023Y-29392523D01*
X207754023Y-29011571D01*
X207706404Y-28916333D01*
X207611166Y-28868714D01*
X207420690Y-28868714D01*
X207325452Y-28916333D01*
X207277833Y-29011571D01*
X207277833Y-29106809D01*
X207754023Y-29202047D01*
X206896880Y-29487761D02*
X206801642Y-29535380D01*
X206611166Y-29535380D01*
X206515928Y-29487761D01*
X206468309Y-29392523D01*
X206468309Y-29344904D01*
X206515928Y-29249666D01*
X206611166Y-29202047D01*
X206754023Y-29202047D01*
X206849261Y-29154428D01*
X206896880Y-29059190D01*
X206896880Y-29011571D01*
X206849261Y-28916333D01*
X206754023Y-28868714D01*
X206611166Y-28868714D01*
X206515928Y-28916333D01*
X206039738Y-29535380D02*
X206039738Y-28868714D01*
X206039738Y-28535380D02*
X206087357Y-28583000D01*
X206039738Y-28630619D01*
X205992119Y-28583000D01*
X206039738Y-28535380D01*
X206039738Y-28630619D01*
X205134976Y-28868714D02*
X205134976Y-29678238D01*
X205182595Y-29773476D01*
X205230214Y-29821095D01*
X205325452Y-29868714D01*
X205468309Y-29868714D01*
X205563547Y-29821095D01*
X205134976Y-29487761D02*
X205230214Y-29535380D01*
X205420690Y-29535380D01*
X205515928Y-29487761D01*
X205563547Y-29440142D01*
X205611166Y-29344904D01*
X205611166Y-29059190D01*
X205563547Y-28963952D01*
X205515928Y-28916333D01*
X205420690Y-28868714D01*
X205230214Y-28868714D01*
X205134976Y-28916333D01*
X204658785Y-28868714D02*
X204658785Y-29535380D01*
X204658785Y-28963952D02*
X204611166Y-28916333D01*
X204515928Y-28868714D01*
X204373071Y-28868714D01*
X204277833Y-28916333D01*
X204230214Y-29011571D01*
X204230214Y-29535380D01*
X203373071Y-29487761D02*
X203468309Y-29535380D01*
X203658785Y-29535380D01*
X203754023Y-29487761D01*
X203801642Y-29392523D01*
X203801642Y-29011571D01*
X203754023Y-28916333D01*
X203658785Y-28868714D01*
X203468309Y-28868714D01*
X203373071Y-28916333D01*
X203325452Y-29011571D01*
X203325452Y-29106809D01*
X203801642Y-29202047D01*
X202468309Y-29535380D02*
X202468309Y-28535380D01*
X202468309Y-29487761D02*
X202563547Y-29535380D01*
X202754023Y-29535380D01*
X202849261Y-29487761D01*
X202896880Y-29440142D01*
X202944500Y-29344904D01*
X202944500Y-29059190D01*
X202896880Y-28963952D01*
X202849261Y-28916333D01*
X202754023Y-28868714D01*
X202563547Y-28868714D01*
X202468309Y-28916333D01*
X201230214Y-29535380D02*
X201230214Y-28535380D01*
X201230214Y-28916333D02*
X201134976Y-28868714D01*
X200944500Y-28868714D01*
X200849261Y-28916333D01*
X200801642Y-28963952D01*
X200754023Y-29059190D01*
X200754023Y-29344904D01*
X200801642Y-29440142D01*
X200849261Y-29487761D01*
X200944500Y-29535380D01*
X201134976Y-29535380D01*
X201230214Y-29487761D01*
X200420690Y-28868714D02*
X200182595Y-29535380D01*
X199944500Y-28868714D02*
X200182595Y-29535380D01*
X200277833Y-29773476D01*
X200325452Y-29821095D01*
X200420690Y-29868714D01*
X198801642Y-29535380D02*
X198801642Y-28535380D01*
X198420690Y-28535380D01*
X198325452Y-28583000D01*
X198277833Y-28630619D01*
X198230214Y-28725857D01*
X198230214Y-28868714D01*
X198277833Y-28963952D01*
X198325452Y-29011571D01*
X198420690Y-29059190D01*
X198801642Y-29059190D01*
X197373071Y-29535380D02*
X197373071Y-29011571D01*
X197420690Y-28916333D01*
X197515928Y-28868714D01*
X197706404Y-28868714D01*
X197801642Y-28916333D01*
X197373071Y-29487761D02*
X197468309Y-29535380D01*
X197706404Y-29535380D01*
X197801642Y-29487761D01*
X197849261Y-29392523D01*
X197849261Y-29297285D01*
X197801642Y-29202047D01*
X197706404Y-29154428D01*
X197468309Y-29154428D01*
X197373071Y-29106809D01*
X196468309Y-28868714D02*
X196468309Y-29535380D01*
X196896880Y-28868714D02*
X196896880Y-29392523D01*
X196849261Y-29487761D01*
X196754023Y-29535380D01*
X196611166Y-29535380D01*
X196515928Y-29487761D01*
X196468309Y-29440142D01*
X195849261Y-29535380D02*
X195944500Y-29487761D01*
X195992119Y-29392523D01*
X195992119Y-28535380D01*
X194706404Y-29535380D02*
X194706404Y-28535380D01*
X194325452Y-28535380D01*
X194230214Y-28583000D01*
X194182595Y-28630619D01*
X194134976Y-28725857D01*
X194134976Y-28868714D01*
X194182595Y-28963952D01*
X194230214Y-29011571D01*
X194325452Y-29059190D01*
X194706404Y-29059190D01*
X193277833Y-29535380D02*
X193277833Y-29011571D01*
X193325452Y-28916333D01*
X193420690Y-28868714D01*
X193611166Y-28868714D01*
X193706404Y-28916333D01*
X193277833Y-29487761D02*
X193373071Y-29535380D01*
X193611166Y-29535380D01*
X193706404Y-29487761D01*
X193754023Y-29392523D01*
X193754023Y-29297285D01*
X193706404Y-29202047D01*
X193611166Y-29154428D01*
X193373071Y-29154428D01*
X193277833Y-29106809D01*
X192373071Y-28868714D02*
X192373071Y-29678238D01*
X192420690Y-29773476D01*
X192468309Y-29821095D01*
X192563547Y-29868714D01*
X192706404Y-29868714D01*
X192801642Y-29821095D01*
X192373071Y-29487761D02*
X192468309Y-29535380D01*
X192658785Y-29535380D01*
X192754023Y-29487761D01*
X192801642Y-29440142D01*
X192849261Y-29344904D01*
X192849261Y-29059190D01*
X192801642Y-28963952D01*
X192754023Y-28916333D01*
X192658785Y-28868714D01*
X192468309Y-28868714D01*
X192373071Y-28916333D01*
X191515928Y-29487761D02*
X191611166Y-29535380D01*
X191801642Y-29535380D01*
X191896880Y-29487761D01*
X191944500Y-29392523D01*
X191944500Y-29011571D01*
X191896880Y-28916333D01*
X191801642Y-28868714D01*
X191611166Y-28868714D01*
X191515928Y-28916333D01*
X191468309Y-29011571D01*
X191468309Y-29106809D01*
X191944500Y-29202047D01*
X190896880Y-29535380D02*
X190992119Y-29487761D01*
X191039738Y-29392523D01*
X191039738Y-28535380D01*
D12*
X179324142Y-96734285D02*
X181609857Y-96734285D01*
X96266142Y-96607285D02*
X98551857Y-96607285D01*
X97409000Y-97750142D02*
X97409000Y-95464428D01*
D11*
X64820800Y-63169800D02*
X90982800Y-63169800D01*
X90982800Y-63169800D02*
X90982800Y-80441800D01*
X90982800Y-80441800D02*
X64820800Y-80441800D01*
X64820800Y-80441800D02*
X64820800Y-63169800D01*
X64820800Y-75869800D02*
X72186800Y-75869800D01*
X72186800Y-75869800D02*
X72186800Y-66979800D01*
X72186800Y-66979800D02*
X64820800Y-66979800D01*
X99870000Y-106570000D02*
X177870000Y-106570000D01*
X177870000Y-106570000D02*
X177870000Y-86470000D01*
X177870000Y-86470000D02*
X99870000Y-86470000D01*
X99870000Y-86470000D02*
X99870000Y-106570000D01*
D10*
X67690904Y-81303880D02*
X67690904Y-82113404D01*
X67643285Y-82208642D01*
X67595666Y-82256261D01*
X67500428Y-82303880D01*
X67309952Y-82303880D01*
X67214714Y-82256261D01*
X67167095Y-82208642D01*
X67119476Y-82113404D01*
X67119476Y-81303880D01*
X66595666Y-82303880D02*
X66405190Y-82303880D01*
X66309952Y-82256261D01*
X66262333Y-82208642D01*
X66167095Y-82065785D01*
X66119476Y-81875309D01*
X66119476Y-81494357D01*
X66167095Y-81399119D01*
X66214714Y-81351500D01*
X66309952Y-81303880D01*
X66500428Y-81303880D01*
X66595666Y-81351500D01*
X66643285Y-81399119D01*
X66690904Y-81494357D01*
X66690904Y-81732452D01*
X66643285Y-81827690D01*
X66595666Y-81875309D01*
X66500428Y-81922928D01*
X66309952Y-81922928D01*
X66214714Y-81875309D01*
X66167095Y-81827690D01*
X66119476Y-81732452D01*
X69892704Y-69734180D02*
X69892704Y-70543704D01*
X69845085Y-70638942D01*
X69797466Y-70686561D01*
X69702228Y-70734180D01*
X69511752Y-70734180D01*
X69416514Y-70686561D01*
X69368895Y-70638942D01*
X69321276Y-70543704D01*
X69321276Y-69734180D01*
X68892704Y-70686561D02*
X68749847Y-70734180D01*
X68511752Y-70734180D01*
X68416514Y-70686561D01*
X68368895Y-70638942D01*
X68321276Y-70543704D01*
X68321276Y-70448466D01*
X68368895Y-70353228D01*
X68416514Y-70305609D01*
X68511752Y-70257990D01*
X68702228Y-70210371D01*
X68797466Y-70162752D01*
X68845085Y-70115133D01*
X68892704Y-70019895D01*
X68892704Y-69924657D01*
X68845085Y-69829419D01*
X68797466Y-69781800D01*
X68702228Y-69734180D01*
X68464133Y-69734180D01*
X68321276Y-69781800D01*
X67559371Y-70210371D02*
X67416514Y-70257990D01*
X67368895Y-70305609D01*
X67321276Y-70400847D01*
X67321276Y-70543704D01*
X67368895Y-70638942D01*
X67416514Y-70686561D01*
X67511752Y-70734180D01*
X67892704Y-70734180D01*
X67892704Y-69734180D01*
X67559371Y-69734180D01*
X67464133Y-69781800D01*
X67416514Y-69829419D01*
X67368895Y-69924657D01*
X67368895Y-70019895D01*
X67416514Y-70115133D01*
X67464133Y-70162752D01*
X67559371Y-70210371D01*
X67892704Y-70210371D01*
X70392704Y-73528180D02*
X70392704Y-72528180D01*
X70059371Y-73242466D01*
X69726038Y-72528180D01*
X69726038Y-73528180D01*
X69249847Y-73528180D02*
X69249847Y-72861514D01*
X69249847Y-72528180D02*
X69297466Y-72575800D01*
X69249847Y-72623419D01*
X69202228Y-72575800D01*
X69249847Y-72528180D01*
X69249847Y-72623419D01*
X68345085Y-73480561D02*
X68440323Y-73528180D01*
X68630800Y-73528180D01*
X68726038Y-73480561D01*
X68773657Y-73432942D01*
X68821276Y-73337704D01*
X68821276Y-73051990D01*
X68773657Y-72956752D01*
X68726038Y-72909133D01*
X68630800Y-72861514D01*
X68440323Y-72861514D01*
X68345085Y-72909133D01*
X67916514Y-73528180D02*
X67916514Y-72861514D01*
X67916514Y-73051990D02*
X67868895Y-72956752D01*
X67821276Y-72909133D01*
X67726038Y-72861514D01*
X67630800Y-72861514D01*
X67154609Y-73528180D02*
X67249847Y-73480561D01*
X67297466Y-73432942D01*
X67345085Y-73337704D01*
X67345085Y-73051990D01*
X67297466Y-72956752D01*
X67249847Y-72909133D01*
X67154609Y-72861514D01*
X67011752Y-72861514D01*
X66916514Y-72909133D01*
X66868895Y-72956752D01*
X66821276Y-73051990D01*
X66821276Y-73337704D01*
X66868895Y-73432942D01*
X66916514Y-73480561D01*
X67011752Y-73528180D01*
X67154609Y-73528180D01*
X87013847Y-64400180D02*
X86823371Y-64400180D01*
X86728133Y-64447800D01*
X86632895Y-64543038D01*
X86585276Y-64733514D01*
X86585276Y-65066847D01*
X86632895Y-65257323D01*
X86728133Y-65352561D01*
X86823371Y-65400180D01*
X87013847Y-65400180D01*
X87109085Y-65352561D01*
X87204323Y-65257323D01*
X87251942Y-65066847D01*
X87251942Y-64733514D01*
X87204323Y-64543038D01*
X87109085Y-64447800D01*
X87013847Y-64400180D01*
X86156704Y-64400180D02*
X86156704Y-65209704D01*
X86109085Y-65304942D01*
X86061466Y-65352561D01*
X85966228Y-65400180D01*
X85775752Y-65400180D01*
X85680514Y-65352561D01*
X85632895Y-65304942D01*
X85585276Y-65209704D01*
X85585276Y-64400180D01*
X85251942Y-64400180D02*
X84680514Y-64400180D01*
X84966228Y-65400180D02*
X84966228Y-64400180D01*
X84347180Y-65019228D02*
X83585276Y-65019228D01*
X86751942Y-67924371D02*
X86609085Y-67971990D01*
X86561466Y-68019609D01*
X86513847Y-68114847D01*
X86513847Y-68257704D01*
X86561466Y-68352942D01*
X86609085Y-68400561D01*
X86704323Y-68448180D01*
X87085276Y-68448180D01*
X87085276Y-67448180D01*
X86751942Y-67448180D01*
X86656704Y-67495800D01*
X86609085Y-67543419D01*
X86561466Y-67638657D01*
X86561466Y-67733895D01*
X86609085Y-67829133D01*
X86656704Y-67876752D01*
X86751942Y-67924371D01*
X87085276Y-67924371D01*
X86132895Y-68162466D02*
X85656704Y-68162466D01*
X86228133Y-68448180D02*
X85894800Y-67448180D01*
X85561466Y-68448180D01*
X85370990Y-67448180D02*
X84799561Y-67448180D01*
X85085276Y-68448180D02*
X85085276Y-67448180D01*
X84466228Y-68067228D02*
X83704323Y-68067228D01*
X86751942Y-75544371D02*
X86609085Y-75591990D01*
X86561466Y-75639609D01*
X86513847Y-75734847D01*
X86513847Y-75877704D01*
X86561466Y-75972942D01*
X86609085Y-76020561D01*
X86704323Y-76068180D01*
X87085276Y-76068180D01*
X87085276Y-75068180D01*
X86751942Y-75068180D01*
X86656704Y-75115800D01*
X86609085Y-75163419D01*
X86561466Y-75258657D01*
X86561466Y-75353895D01*
X86609085Y-75449133D01*
X86656704Y-75496752D01*
X86751942Y-75544371D01*
X87085276Y-75544371D01*
X86132895Y-75782466D02*
X85656704Y-75782466D01*
X86228133Y-76068180D02*
X85894800Y-75068180D01*
X85561466Y-76068180D01*
X85370990Y-75068180D02*
X84799561Y-75068180D01*
X85085276Y-76068180D02*
X85085276Y-75068180D01*
X84466228Y-75687228D02*
X83704323Y-75687228D01*
X84085276Y-76068180D02*
X84085276Y-75306276D01*
X86759847Y-78116180D02*
X86569371Y-78116180D01*
X86474133Y-78163800D01*
X86378895Y-78259038D01*
X86331276Y-78449514D01*
X86331276Y-78782847D01*
X86378895Y-78973323D01*
X86474133Y-79068561D01*
X86569371Y-79116180D01*
X86759847Y-79116180D01*
X86855085Y-79068561D01*
X86950323Y-78973323D01*
X86997942Y-78782847D01*
X86997942Y-78449514D01*
X86950323Y-78259038D01*
X86855085Y-78163800D01*
X86759847Y-78116180D01*
X85902704Y-78116180D02*
X85902704Y-78925704D01*
X85855085Y-79020942D01*
X85807466Y-79068561D01*
X85712228Y-79116180D01*
X85521752Y-79116180D01*
X85426514Y-79068561D01*
X85378895Y-79020942D01*
X85331276Y-78925704D01*
X85331276Y-78116180D01*
X84997942Y-78116180D02*
X84426514Y-78116180D01*
X84712228Y-79116180D02*
X84712228Y-78116180D01*
X84093180Y-78735228D02*
X83331276Y-78735228D01*
X83712228Y-79116180D02*
X83712228Y-78354276D01*
X70154704Y-65090657D02*
X68630895Y-65090657D01*
X70154704Y-78806657D02*
X68630895Y-78806657D01*
X69392800Y-79568561D02*
X69392800Y-78044752D01*
X139655714Y-95448571D02*
X139512857Y-95496190D01*
X139465238Y-95543809D01*
X139417619Y-95639047D01*
X139417619Y-95781904D01*
X139465238Y-95877142D01*
X139512857Y-95924761D01*
X139608095Y-95972380D01*
X139989047Y-95972380D01*
X139989047Y-94972380D01*
X139655714Y-94972380D01*
X139560476Y-95020000D01*
X139512857Y-95067619D01*
X139465238Y-95162857D01*
X139465238Y-95258095D01*
X139512857Y-95353333D01*
X139560476Y-95400952D01*
X139655714Y-95448571D01*
X139989047Y-95448571D01*
X139131904Y-94972380D02*
X138560476Y-94972380D01*
X138846190Y-95972380D02*
X138846190Y-94972380D01*
X137703333Y-95972380D02*
X138274761Y-95972380D01*
X137989047Y-95972380D02*
X137989047Y-94972380D01*
X138084285Y-95115238D01*
X138179523Y-95210476D01*
X138274761Y-95258095D01*
M02*
