M48
INCH,TZ
T1C0.0157
T2C0.0300
T3C0.0315
T4C0.0362
T5C0.0379
T6C0.0394
T7C0.0402
T8C0.0433
T9C0.0551
T10C0.0591
T11C0.0694
T12C0.0787
%
G90
G05
T1
X35750Y-15200
X56669Y-33704
X58668Y-30891
X68300Y-34650
X77800Y-38800
T2
X26100Y-19610
X26100Y-20410
X26100Y-21210
X26100Y-22810
X27100Y-19610
X27100Y-20410
X27100Y-21210
X27100Y-22810
X36400Y-11900
X36400Y-14300
X38300Y-13600
X38300Y-14600
X38300Y-15600
X38300Y-16600
X38300Y-17600
X38300Y-18600
X38300Y-19600
X38300Y-20600
X38300Y-21600
X38300Y-22600
X38300Y-23600
X38300Y-24600
X38300Y-25600
X38300Y-26600
X70500Y-18600
X70500Y-19600
X70500Y-20600
X70500Y-21600
X72600Y-11818
X72600Y-14218
T3
X28724Y-16724
X31724Y-16724
X33348Y-16698
X36348Y-16698
X37700Y-11000
X38684Y-11000
X42669Y-29134
X42913Y-27559
X45669Y-29134
X45913Y-27559
X59449Y-19291
X59843Y-26252
X59843Y-29252
X60326Y-35885
X60326Y-36673
X60326Y-37460
X60433Y-19291
X60843Y-26252
X60843Y-29252
X61114Y-35885
X61114Y-36673
X61114Y-37460
X61643Y-21764
X61643Y-24764
X61843Y-26252
X61843Y-29252
X62076Y-16685
X62076Y-19685
X62843Y-26252
X62843Y-29252
X63583Y-17323
X63583Y-19291
X63611Y-21712
X63611Y-24712
X65157Y-16685
X65157Y-19685
X65354Y-21803
X65354Y-24803
X65354Y-26528
X65354Y-29528
X65933Y-34920
X65933Y-35920
X66535Y-17323
X66535Y-19291
X66929Y-26528
X66929Y-29528
X67323Y-21803
X67323Y-24803
X68110Y-19685
X68504Y-26528
X68504Y-29528
X68850Y-32950
X68898Y-13583
X68898Y-16535
X68898Y-21803
X68898Y-24803
X68900Y-31250
X69094Y-19685
X69882Y-13583
X69882Y-16535
X71850Y-32950
X71900Y-31250
T4
X29090Y-14994
X29890Y-14994
X30690Y-14994
X31490Y-14994
X32290Y-14994
X49937Y-29160
X50937Y-29160
X51937Y-29160
X52937Y-29160
X53937Y-29160
X54937Y-29160
X55937Y-29160
X56937Y-29160
X57937Y-29160
X63042Y-14978
X63842Y-14978
X64642Y-14978
X65442Y-14978
X66242Y-14978
T5
X26320Y-25570
X26320Y-30970
X35120Y-25570
X35120Y-26770
X35120Y-29770
X35120Y-30970
T6
X30700Y-24400
X30700Y-26300
X31000Y-18700
X32000Y-18700
X33000Y-18700
X33300Y-24400
X33300Y-26300
X35600Y-21200
X35600Y-22200
X35600Y-23200
X59450Y-22800
X59450Y-23800
X73800Y-31350
X73800Y-32334
X73800Y-33319
X79509Y-31350
X79509Y-33319
X83040Y-30980
X83040Y-31980
X83040Y-32980
X83040Y-33980
X83040Y-34980
X83040Y-35980
T7
X40800Y-16600
X40800Y-19700
X40800Y-20800
X40800Y-21800
X40800Y-25000
X40800Y-26000
X41800Y-16600
X42800Y-16600
X43800Y-16600
X44800Y-16600
X45800Y-16600
X46800Y-16600
X47800Y-16600
X48300Y-19900
X48300Y-20900
X48300Y-24800
X48300Y-25800
X48800Y-16600
X51200Y-11400
X51200Y-12400
X51200Y-13400
X51200Y-14400
X51200Y-15400
X51200Y-16400
X62742Y-10978
X66542Y-10978
T8
X26000Y-34000
X26000Y-35772
X28559Y-34000
X28559Y-35772
X28790Y-10994
X30000Y-31000
X30000Y-32772
X30000Y-37000
X30000Y-38772
X32559Y-31000
X32559Y-32772
X32559Y-37000
X32559Y-38772
X32590Y-10994
X34000Y-34000
X34000Y-35772
X36559Y-34000
X36559Y-35772
X43220Y-32420
X43220Y-38420
X44220Y-32420
X44220Y-38420
X45220Y-32420
X45220Y-38420
X46220Y-32420
X46220Y-38420
X47220Y-32420
X47220Y-38420
X48220Y-32420
X48220Y-33420
X48220Y-34420
X48220Y-35420
X48220Y-36420
X48220Y-37420
X48220Y-38420
X49220Y-32420
X49220Y-38420
X50220Y-32420
X50220Y-38420
X51220Y-32420
X51220Y-38420
X52220Y-32420
X52220Y-38420
X53220Y-32420
X53220Y-38420
X54220Y-32420
X54220Y-38420
X55220Y-32420
X55220Y-38420
X56220Y-32420
X56220Y-38420
X57220Y-32420
X57220Y-38420
X58220Y-32420
X58220Y-38420
X59220Y-32420
X59220Y-38420
X59740Y-33621
X60220Y-32420
X60220Y-38420
X60740Y-33621
X61220Y-32420
X61220Y-38420
X61740Y-33621
X62220Y-32420
X62220Y-38420
X62740Y-33621
X63220Y-32420
X63220Y-38420
X63740Y-33621
X64220Y-32420
X64220Y-38420
X65220Y-32420
X65220Y-37420
X65220Y-38420
X66220Y-32420
X66220Y-38420
X73000Y-22000
X73000Y-23772
X75559Y-22000
X75559Y-23772
X77000Y-19000
X77000Y-20772
X77000Y-25000
X77000Y-26772
X79559Y-19000
X79559Y-20772
X79559Y-25000
X79559Y-26772
X81000Y-22000
X81000Y-23772
X83559Y-22000
X83559Y-23772
T9
X29500Y-20100
X29500Y-24200
X34600Y-20100
X34600Y-24200
T10
X26600Y-18810
X26600Y-23610
X58200Y-11300
X60188Y-12048
T11
X57737Y-22360
X57737Y-24260
T12
X40500Y-38000
X58249Y-14961
X68846Y-38000
T10
G00X76497Y-30130
M15
G01X77009Y-30130
M16
G05
G00X76497Y-34539
M15
G01X77009Y-34539
M16
G05
T0
M30
